<?xml version="1.0" encoding="UTF-8"?>
<svg version="1.1" xmlns="http://www.w3.org/2000/svg" width="64" height="64">
<path d="M0 0 C13.2 0 26.4 0 40 0 C40 7.92 40 15.84 40 24 C40.99 23.67 41.98 23.34 43 23 C43.185625 21.824375 43.185625 21.824375 43.375 20.625 C44 18 44 18 46 16 C50.52290666 16.21320099 52.73290454 18.1388104 55.875 21.25 C56.67679688 22.01828125 57.47859375 22.7865625 58.3046875 23.578125 C60 26 60 26 60.0234375 28.4921875 C58.74806197 31.61734434 57.12277533 33.47865405 54.75 35.875 C53.98171875 36.67679688 53.2134375 37.47859375 52.421875 38.3046875 C50 40 50 40 47.328125 39.8828125 C45 39 45 39 43 37 C43 35.68 43 34.36 43 33 C42.01 32.67 41.02 32.34 40 32 C40 39.92 40 47.84 40 56 C26.8 56 13.6 56 0 56 C0 37.52 0 19.04 0 0 Z M2 3 C1.90153033 4.55999048 1.87201382 6.12440544 1.87060547 7.6875 C1.86745331 8.68523438 1.86430115 9.68296875 1.86105347 10.7109375 C1.8630777 11.79632813 1.86510193 12.88171875 1.8671875 14 C1.86623077 15.10601562 1.86527405 16.21203125 1.86428833 17.3515625 C1.86360633 19.69531308 1.86546196 22.03906553 1.86962891 24.3828125 C1.87497686 27.98441788 1.86968453 31.58589853 1.86328125 35.1875 C1.86394203 37.45833361 1.86522318 39.72916714 1.8671875 42 C1.86516327 43.08539063 1.86313904 44.17078125 1.86105347 45.2890625 C1.86420563 46.28679688 1.86735779 47.28453125 1.87060547 48.3125 C1.87140106 49.19550781 1.87219666 50.07851563 1.87301636 50.98828125 C1.77729326 52.99767892 1.77729326 52.99767892 3 54 C5.50924153 54.10087212 7.99036384 54.13972032 10.5 54.1328125 C11.62631836 54.13424759 11.62631836 54.13424759 12.77539062 54.13571167 C14.36588627 54.13639338 15.95638467 54.13453972 17.546875 54.13037109 C19.98964655 54.12502267 22.43223421 54.13031634 24.875 54.13671875 C26.41666707 54.13605797 27.95833403 54.1347768 29.5 54.1328125 C30.23541016 54.13483673 30.97082031 54.13686096 31.72851562 54.13894653 C35.15246342 54.43056513 35.15246342 54.43056513 38 53 C38.08685603 51.43827255 38.10702219 49.87270656 38.09765625 48.30859375 C38.09515869 47.45837646 38.09266113 46.60815918 38.09008789 45.73217773 C38.08098389 44.64493408 38.07187988 43.55769043 38.0625 42.4375 C38.041875 38.993125 38.02125 35.54875 38 32 C30.74 32 23.48 32 16 32 C16 29.36 16 26.72 16 24 C23.26 24 30.52 24 38 24 C38.020625 20.555625 38.04125 17.11125 38.0625 13.5625 C38.071604 12.47525635 38.08070801 11.3880127 38.09008789 10.26782227 C38.09258545 9.41760498 38.09508301 8.5673877 38.09765625 7.69140625 C38.10289307 6.81685791 38.10812988 5.94230957 38.11352539 5.04125977 C38.22784809 3.00559794 38.22784809 3.00559794 37 2 C34.49075847 1.89912788 32.00963616 1.86027968 29.5 1.8671875 C28.74912109 1.86623077 27.99824219 1.86527405 27.22460938 1.86428833 C25.63411373 1.86360662 24.04361533 1.86546028 22.453125 1.86962891 C20.01035345 1.87497733 17.56776579 1.86968366 15.125 1.86328125 C13.58333293 1.86394203 12.04166597 1.8652232 10.5 1.8671875 C9.76458984 1.86516327 9.02917969 1.86313904 8.27148438 1.86105347 C4.84753658 1.56943487 4.84753658 1.56943487 2 3 Z M47 20 C47.66 21.98 48.32 23.96 49 26 C38.77 26 28.54 26 18 26 C18 27.32 18 28.64 18 30 C28.23 30 38.46 30 49 30 C48.34 31.98 47.68 33.96 47 36 C50.81684226 34.44499019 53.19195732 31.96404505 56 29 C54.44396229 25.18063472 52.04395069 22.73955562 49 20 C48.34 20 47.68 20 47 20 Z " fill="#000000" transform="translate(4,4)"/>
<path d="M0 0 C0.66 0 1.32 0 2 0 C2 1.32 2 2.64 2 4 C1.34 4 0.68 4 0 4 C0 2.68 0 1.36 0 0 Z " fill="#000000" transform="translate(38,52)"/>
<path d="M0 0 C0.66 0 1.32 0 2 0 C2 1.32 2 2.64 2 4 C1.34 4 0.68 4 0 4 C0 2.68 0 1.36 0 0 Z " fill="#000000" transform="translate(33,52)"/>
<path d="M0 0 C0.66 0 1.32 0 2 0 C2 1.32 2 2.64 2 4 C1.34 4 0.68 4 0 4 C0 2.68 0 1.36 0 0 Z " fill="#000000" transform="translate(28,52)"/>
<path d="M0 0 C0.66 0 1.32 0 2 0 C2 1.32 2 2.64 2 4 C1.34 4 0.68 4 0 4 C0 2.68 0 1.36 0 0 Z " fill="#000000" transform="translate(23,52)"/>
<path d="M0 0 C0.66 0 1.32 0 2 0 C2 1.32 2 2.64 2 4 C1.34 4 0.68 4 0 4 C0 2.68 0 1.36 0 0 Z " fill="#000000" transform="translate(18,52)"/>
<path d="M0 0 C0.66 0 1.32 0 2 0 C2 1.32 2 2.64 2 4 C1.34 4 0.68 4 0 4 C0 2.68 0 1.36 0 0 Z " fill="#000000" transform="translate(13,52)"/>
<path d="M0 0 C0.66 0 1.32 0 2 0 C2 1.32 2 2.64 2 4 C1.34 4 0.68 4 0 4 C0 2.68 0 1.36 0 0 Z " fill="#000000" transform="translate(8,52)"/>
</svg>
