<?xml version="1.0" encoding="UTF-8"?>
<svg version="1.1" xmlns="http://www.w3.org/2000/svg" width="512" height="512">
<path d="M0 0 C54.49140897 -1.37245153 108.00822365 15.77899624 152 48 C152.57298828 48.41604492 153.14597656 48.83208984 153.73632812 49.26074219 C161.33609127 54.81306045 168.30115597 60.86612477 175.125 67.3359375 C177.90681987 69.98062864 177.90681987 69.98062864 180.67578125 72.12890625 C182.78713267 73.82863286 184.45002019 75.49449704 186.1875 77.5625 C188.93891441 80.79422598 191.7833 83.90497916 194.6875 87 C232.36202951 128.4932791 256.90034774 187.37175408 257.203125 243.57421875 C257.21013931 244.45251846 257.21715363 245.33081818 257.22438049 246.23573303 C257.24177656 249.05304156 257.24823248 251.87013974 257.25 254.6875 C257.25067474 255.65119507 257.25134949 256.61489014 257.25204468 257.60778809 C257.2360737 271.95898366 256.72926873 285.87507718 254 300 C253.8443457 300.88252441 253.68869141 301.76504883 253.52832031 302.67431641 C247.54743477 336.30933641 234.50050867 369.84949138 215 398 C214.3819751 398.90443848 214.3819751 398.90443848 213.75146484 399.82714844 C205.39759722 412.00331968 196.02825797 423.17618086 186 434 C187.45745424 437.36335594 189.31117854 439.54534005 191.9140625 442.109375 C192.67460937 442.86347656 193.43515625 443.61757813 194.21875 444.39453125 C195.0128125 445.17183594 195.806875 445.94914062 196.625 446.75 C197.42679688 447.54277344 198.22859375 448.33554687 199.0546875 449.15234375 C201.03202846 451.10614493 203.01388909 453.05512103 205 455 C202.07946885 461.88813536 196.44014141 468.20898366 190 472 C182.98152835 474.19829958 175.42327837 473.51927958 168.16796875 473.26953125 C166.07910424 473.24523862 163.99016488 473.22675536 161.90119934 473.21379089 C156.44284071 473.16450847 150.98908862 473.03714724 145.53253174 472.89263916 C139.94875396 472.75886487 134.36422037 472.70011373 128.77929688 472.63476562 C117.8508571 472.49597498 106.92581376 472.27455933 96 472 C95.62729296 460.2821246 95.3440139 448.56568474 95.17100525 436.84306335 C95.08791177 431.39778579 94.97548203 425.95659621 94.79296875 420.51367188 C94.61753914 415.24830857 94.52314403 409.98684294 94.48196411 404.71878052 C94.45267153 402.72179818 94.3954631 400.72500088 94.30831909 398.72970581 C93.93387967 389.7908259 93.69573918 382.23846056 99.66845703 375.09619141 C103.49308039 371.05460446 107.61211401 367.41739583 112 364 C115.81249879 365.7758666 118.23349496 368.00365188 121.203125 371.0078125 C121.6857782 371.49329559 122.1684314 371.97877869 122.66571045 372.47897339 C124.19858562 374.02299866 125.72434004 375.57384824 127.25 377.125 C128.29120361 378.17624009 129.33286541 379.22702657 130.375 380.27734375 C132.92199464 382.84633004 135.46265177 385.42148161 138 388 C171.32602477 354.71191234 191.19214107 310.97265239 191.32958984 263.56225586 C191.32577137 261.83316541 191.32004131 260.10407822 191.3125 258.375 C191.31034485 257.48749054 191.3081897 256.59998108 191.30596924 255.68557739 C191.25605931 242.89118052 190.9051982 230.50959772 188 218 C187.71793701 216.69216553 187.71793701 216.69216553 187.43017578 215.35791016 C176.68025702 166.19221171 146.37155228 122.26180566 104 95 C74.74634737 77.08749632 42.31432669 66.47311593 7.96411133 65.28979492 C2.17954374 65.08977187 2.17954374 65.08977187 0 64 C0 58.72 0 53.44 0 48 C52.50249855 45.99353509 101.93904455 66.67865839 141 101 C141.76957031 101.64710937 142.53914062 102.29421875 143.33203125 102.9609375 C147.34127229 106.34924446 150.85496098 109.92750986 154.2421875 113.9375 C155.38351053 115.27665235 156.55439728 116.5913571 157.7578125 117.875 C169.7071865 130.67432947 179.04107691 145.47574608 187 161 C187.35400879 161.67820801 187.70801758 162.35641602 188.07275391 163.05517578 C197.40999447 181.10308469 203.87491046 200.91864735 207 221 C207.17587646 222.11995361 207.35175293 223.23990723 207.53295898 224.39379883 C209.10692817 235.50396374 209.35935992 246.47770428 209.3125 257.6875 C209.31034485 258.61542358 209.3081897 259.54334717 209.30596924 260.49938965 C209.25620453 273.84496177 209.05979859 286.94648259 206 300 C205.79068848 300.89477051 205.58137695 301.78954102 205.36572266 302.71142578 C194.48981454 347.71597976 170.56543766 380.91237118 139 414 C130.22920771 406.48217804 122.16836717 398.16836717 114 390 C113.67 411.78 113.34 433.56 113 456 C134.78 455.67 156.56 455.34 179 455 C172.73 448.73 166.46 442.46 160 436 C162.34521576 432.09130707 163.90873411 429.87013447 167.0625 426.84765625 C167.85390381 426.0786499 168.64530762 425.30964355 169.46069336 424.51733398 C170.29866455 423.70723877 171.13663574 422.89714355 172 422.0625 C179.7083478 414.46545887 186.75472306 406.8356475 193 398 C193.46921875 397.34273926 193.9384375 396.68547852 194.421875 396.00830078 C214.57253173 367.52561263 227.80388979 336.27429396 235.25 302.25 C235.40130371 301.56695801 235.55260742 300.88391602 235.70849609 300.18017578 C238.70571011 285.60050758 239.40776805 270.96511178 239.375 256.125 C239.37478851 255.23358307 239.37457703 254.34216614 239.37435913 253.42373657 C239.33799388 237.97781037 238.17626574 223.15577251 235 208 C234.81808105 207.11199707 234.63616211 206.22399414 234.44873047 205.30908203 C227.17182554 170.86246415 211.973654 137.54610942 190 110 C189.28328125 109.09121094 188.5665625 108.18242188 187.828125 107.24609375 C182.18554697 100.21288035 176.18080803 93.5584729 170 87 C169.31035156 86.2678125 168.62070312 85.535625 167.91015625 84.78125 C162.65966679 79.36970258 156.90478973 74.6769063 151 70 C150.05769531 69.22914062 149.11539063 68.45828125 148.14453125 67.6640625 C125.66735829 49.69395527 99.45393125 36.4509255 72 28 C71.25766113 27.76732422 70.51532227 27.53464844 69.75048828 27.29492188 C49.99472467 21.18139044 29.82281112 18.15464628 9.20117188 17.39453125 C8.30076172 17.35714844 7.40035156 17.31976562 6.47265625 17.28125 C5.66062744 17.25095703 4.84859863 17.22066406 4.01196289 17.18945312 C2 17 2 17 0 16 C0 10.72 0 5.44 0 0 Z " fill="#4B4B4B" transform="translate(254,0)"/>
<path d="M0 0 C2.06644362 0.02429333 4.13296292 0.04277626 6.19950867 0.05574036 C11.59870764 0.1050176 16.99324791 0.23237314 22.390625 0.37689209 C27.91407252 0.51067837 33.43828459 0.56941998 38.96289062 0.63476562 C49.7728633 0.77354689 60.57940142 0.99495524 71.38671875 1.26953125 C71.73592817 13.13520804 72.00160927 24.99964252 72.16390133 36.8694315 C72.24184159 42.38283176 72.34733202 47.89269081 72.51831055 53.40405273 C72.68261176 58.73419757 72.77124124 64.06096254 72.8098774 69.39344597 C72.83736648 71.41629163 72.8910525 73.43897419 72.9726696 75.46035957 C73.61679597 92.09122501 73.61679597 92.09122501 67.94754028 98.95748901 C64.37984632 102.74341055 60.52317731 106.11955278 56.38671875 109.26953125 C52.57421996 107.49366465 50.15322379 105.26587937 47.18359375 102.26171875 C46.70094055 101.77623566 46.21828735 101.29075256 45.7210083 100.79055786 C44.18813313 99.24653259 42.66237871 97.69568301 41.13671875 96.14453125 C40.09551514 95.09329116 39.05385334 94.04250468 38.01171875 92.9921875 C35.46472411 90.42320121 32.92406698 87.84804964 30.38671875 85.26953125 C29.63221436 86.02669434 28.87770996 86.78385742 28.1003418 87.56396484 C26.60775148 89.05212372 25.10984268 90.53523902 23.58911133 91.99462891 C19.22369928 96.2081033 15.58749765 100.70599807 12.07421875 105.64453125 C11.51516846 106.42836182 10.95611816 107.21219238 10.38012695 108.01977539 C0.77457515 121.67135601 -6.67061206 135.67131501 -12.61328125 151.26953125 C-12.8644873 151.92131348 -13.11569336 152.5730957 -13.37451172 153.24462891 C-21.29134241 174.13824938 -24.711414 197.97977284 -23.61328125 220.26953125 C-23.55164795 221.55972168 -23.55164795 221.55972168 -23.48876953 222.87597656 C-20.8884807 272.7716147 -1.92704643 316.2136826 32.38671875 352.26953125 C33.03898437 352.97464844 33.69125 353.67976563 34.36328125 354.40625 C66.55160936 388.16975162 114.98693094 406.31333911 160.91625977 407.97949219 C166.29566677 408.17847927 166.29566677 408.17847927 167.38671875 409.26953125 C167.45991496 411.96607979 167.47914412 414.63644583 167.44921875 417.33203125 C167.44470703 418.09064453 167.44019531 418.84925781 167.43554688 419.63085938 C167.42372555 421.51044996 167.40578953 423.39000024 167.38671875 425.26953125 C112.97760942 427.48028513 62.23517394 404.42471753 22.63671875 368.20703125 C17.89179505 363.80073749 13.47172856 359.30253912 9.38671875 354.26953125 C8.49898863 353.21720261 7.6109376 352.16514464 6.72265625 351.11328125 C-5.19483282 336.81229437 -14.82864016 321.16309719 -22.61328125 304.26953125 C-23.144375 303.13515625 -23.67546875 302.00078125 -24.22265625 300.83203125 C-46.01508549 252.30455996 -47.47885228 194.21877398 -29.61328125 144.26953125 C-19.46446653 118.04907501 -4.28794298 95.16977244 14.95703125 74.79199219 C17.15020077 72.45650633 19.30178887 70.0845429 21.44921875 67.70703125 C22.14144531 66.94261719 22.83367187 66.17820312 23.546875 65.390625 C25.2629762 63.41218986 26.8459893 61.38623433 28.38671875 59.26953125 C38.51478756 64.33356565 45.37977732 74.26258982 53.38671875 82.26953125 C53.88171875 50.09453125 53.88171875 50.09453125 54.38671875 17.26953125 C32.93671875 17.59953125 11.48671875 17.92953125 -10.61328125 18.26953125 C-1.20828125 27.67453125 -1.20828125 27.67453125 8.38671875 37.26953125 C6.40671875 39.57953125 4.42671875 41.88953125 2.38671875 44.26953125 C1.8040625 44.95660156 1.22140625 45.64367187 0.62109375 46.3515625 C-2.50847856 49.99998496 -5.76110453 53.38739651 -9.23828125 56.70703125 C-50.95360016 98.10584547 -71.27808695 160.62037342 -71.70703125 218.33203125 C-71.4178085 256.89296908 -61.87433131 295.31038552 -43.61328125 329.26953125 C-43.27216309 329.91696289 -42.93104492 330.56439453 -42.57958984 331.23144531 C-22.55053998 369.12525088 9.00397255 402.20255958 46.38671875 423.26953125 C47.17481934 423.71409668 47.96291992 424.15866211 48.77490234 424.61669922 C84.19210722 444.34565775 122.08522035 455.04221231 162.64453125 456.09375 C166.38671875 456.26953125 166.38671875 456.26953125 167.38671875 457.26953125 C167.45991496 459.96607979 167.47914412 462.63644583 167.44921875 465.33203125 C167.44470703 466.09064453 167.44019531 466.84925781 167.43554688 467.63085938 C167.42372555 469.51044996 167.40578953 471.39000024 167.38671875 473.26953125 C127.33198455 474.42205791 88.2858166 465.00438234 52.38671875 447.26953125 C51.71785645 446.94130371 51.04899414 446.61307617 50.35986328 446.27490234 C-9.77660893 416.41121206 -54.96552502 361.70023362 -76.57421875 298.62109375 C-79.85139465 288.66104935 -82.48989521 278.5355596 -84.61328125 268.26953125 C-84.88180908 267.08230469 -85.15033691 265.89507812 -85.42700195 264.671875 C-88.33030115 250.74476976 -88.10666959 236.61738133 -88.05932617 222.45898438 C-88.05016697 219.5931264 -88.05700331 216.7280856 -88.07983398 213.86230469 C-88.25637429 191.56201655 -86.74214513 170.10545422 -80.36328125 148.58203125 C-80.06663574 147.5564209 -79.76999023 146.53081055 -79.46435547 145.47412109 C-67.44665519 104.92455918 -46.38023359 70.07974375 -17.61328125 39.26953125 C-19.07073549 35.90617531 -20.92445979 33.7241912 -23.52734375 31.16015625 C-24.28789063 30.40605469 -25.0484375 29.65195313 -25.83203125 28.875 C-26.62609375 28.09769531 -27.42015625 27.32039063 -28.23828125 26.51953125 C-29.04007813 25.72675781 -29.841875 24.93398438 -30.66796875 24.1171875 C-32.64530971 22.16338632 -34.62717034 20.21441022 -36.61328125 18.26953125 C-29.4288326 1.30325617 -16.48752245 -0.57386235 0 0 Z " fill="#4B4B4B" transform="translate(87.61328125,38.73046875)"/>
<path d="M0 0 C5.28 0 10.56 0 16 0 C15.9969838 1.13481812 15.99396759 2.26963623 15.99085999 3.43884277 C15.96695321 14.14992779 15.97984223 24.86042558 16.02846622 35.57143402 C16.05228819 41.07776111 16.06328721 46.5834836 16.04467773 52.08984375 C16.02718436 57.40704712 16.04377106 62.72316593 16.08367729 68.04023743 C16.09294901 70.06551749 16.09008046 72.09089181 16.07469368 74.11613464 C15.43923537 86.36801707 15.43923537 86.36801707 20.32128906 97.05395508 C22.17616192 98.68911267 22.17616192 98.68911267 24 100 C24.68408936 100.74660889 25.36817871 101.49321777 26.07299805 102.26245117 C26.90891479 103.14380737 26.90891479 103.14380737 27.76171875 104.04296875 C28.71836426 105.05472168 28.71836426 105.05472168 29.69433594 106.08691406 C30.35208008 106.78010742 31.00982422 107.47330078 31.6875 108.1875 C38.02970111 114.89880842 44.32383634 121.6505677 50.57324219 128.44824219 C53.00472083 131.09274565 55.43933056 133.73435641 57.875 136.375 C58.36516602 136.90641602 58.85533203 137.43783203 59.36035156 137.98535156 C63.22529015 142.17090722 67.11013665 146.33761202 71 150.5 C77.91151286 157.89573489 84.7802819 165.3301182 91.63623047 172.77734375 C92.74340598 173.97988182 93.85082444 175.18219626 94.95849609 176.38427734 C95.99975421 177.51428806 97.04047609 178.64479323 98.08056641 179.77587891 C100.34291524 182.23070202 102.61110848 184.66741232 105 187 C103.46356148 190.68069887 101.21849055 192.98775204 98.375 195.75 C97.55773437 196.54921875 96.74046875 197.3484375 95.8984375 198.171875 C95.27195312 198.77515625 94.64546875 199.3784375 94 200 C89.92536489 198.42179626 87.45778029 195.4994367 84.625 192.3125 C83.55657011 191.1322867 82.48753497 189.95262111 81.41796875 188.7734375 C80.86028809 188.1556543 80.30260742 187.53787109 79.72802734 186.90136719 C76.83200794 183.71484569 73.88257338 180.57861518 70.9375 177.4375 C65.87145659 172.02062447 60.84740158 166.56833349 55.84375 161.09375 C52.5863524 157.54022535 49.29295488 154.02054571 46 150.5 C41.81020722 146.02063191 37.63791134 141.52736182 33.5 137 C28.79747154 131.85553054 24.04901436 126.75570351 19.28808594 121.6652832 C14.74757903 116.80824454 10.23131314 111.92943251 5.73071289 107.03540039 C3.84913375 104.99137334 1.96474792 102.96474792 0 101 C-0.24609566 99.17654991 -0.24609566 99.17654991 -0.24050903 96.92514038 C-0.24325836 96.07256149 -0.24600769 95.2199826 -0.24884033 94.34156799 C-0.24164978 93.40433395 -0.23445923 92.46709991 -0.22705078 91.50146484 C-0.22734283 90.51606216 -0.22763489 89.53065948 -0.22793579 88.51539612 C-0.22653864 85.24715472 -0.21095927 81.97913924 -0.1953125 78.7109375 C-0.19158374 76.44935226 -0.18873612 74.18776541 -0.18673706 71.92617798 C-0.17908981 65.96504276 -0.15943194 60.00400453 -0.1373291 54.04290771 C-0.11689417 47.96351433 -0.10774038 41.88410531 -0.09765625 35.8046875 C-0.07618709 23.86974898 -0.042038 11.93488255 0 0 Z " fill="#4B4B4B" transform="translate(248,160)"/>
<path d="M0 0 C5.28 0 10.56 0 16 0 C16 5.28 16 10.56 16 16 C10.72 16 5.44 16 0 16 C0 10.72 0 5.44 0 0 Z " fill="#4C4C4C" transform="translate(248,416)"/>
<path d="M0 0 C5.28 0 10.56 0 16 0 C16 5.28 16 10.56 16 16 C10.72 16 5.44 16 0 16 C0 10.72 0 5.44 0 0 Z " fill="#4C4C4C" transform="translate(128,360)"/>
<path d="M0 0 C5.28 0 10.56 0 16 0 C16 5.28 16 10.56 16 16 C10.72 16 5.44 16 0 16 C0 10.72 0 5.44 0 0 Z " fill="#4C4C4C" transform="translate(416,248)"/>
<path d="M0 0 C5.28 0 10.56 0 16 0 C16 5.28 16 10.56 16 16 C10.72 16 5.44 16 0 16 C0 10.72 0 5.44 0 0 Z " fill="#4C4C4C" transform="translate(80,248)"/>
<path d="M0 0 C5.28 0 10.56 0 16 0 C16 5.28 16 10.56 16 16 C10.72 16 5.44 16 0 16 C0 10.72 0 5.44 0 0 Z " fill="#4C4C4C" transform="translate(360,136)"/>
<path d="M0 0 C5.28 0 10.56 0 16 0 C16 5.28 16 10.56 16 16 C10.72 16 5.44 16 0 16 C0 10.72 0 5.44 0 0 Z " fill="#4C4C4C" transform="translate(248,80)"/>
</svg>
