<?xml version="1.0" encoding="UTF-8"?>
<svg version="1.1" xmlns="http://www.w3.org/2000/svg" width="128" height="160">
<path d="M0 0 C42.24 0 84.48 0 128 0 C128 52.8 128 105.6 128 160 C85.76 160 43.52 160 0 160 C0 107.2 0 54.4 0 0 Z " fill="#7E7F7E" transform="translate(0,0)"/>
<path d="M0 0 C6.78376359 5.55035203 12.85522968 11.76442027 19 18 C16.35261084 19.4606285 15.10551666 20 12 20 C11.505 21.485 11.505 21.485 11 23 C11.99 22.67 12.98 22.34 14 22 C13.505 23.485 13.505 23.485 13 25 C12.01 25 11.02 25 10 25 C10 24.34 10 23.68 10 23 C-1.22 23 -12.44 23 -24 23 C-23.505 25.475 -23.505 25.475 -23 28 C-13.43 28.33 -3.86 28.66 6 29 C6 29.66 6 30.32 6 31 C7.98 31.66 9.96 32.32 12 33 C11.67 34.32 11.34 35.64 11 37 C10.34 36.67 9.68 36.34 9 36 C8.505 36.99 8.505 36.99 8 38 C-2.56 38 -13.12 38 -24 38 C-24 39.65 -24 41.3 -24 43 C-12.45 42.67 -0.9 42.34 11 42 C11 43.98 11 45.96 11 48 C11.66 48 12.32 48 13 48 C13.33 47.01 13.66 46.02 14 45 C14.66 45.66 15.32 46.32 16 47 C16.33 41.72 16.66 36.44 17 31 C18.98 31.495 18.98 31.495 21 32 C21 63.35 21 94.7 21 127 C14.25 128.125 14.25 128.125 10.73876953 128.02172852 C9.95841339 128.00163223 9.17805725 127.98153595 8.37405396 127.96083069 C7.55194427 127.93379562 6.72983459 127.90676056 5.8828125 127.87890625 C5.02565643 127.85529526 4.16850037 127.83168427 3.28536987 127.80735779 C0.56505852 127.73118088 -2.1549345 127.64696063 -4.875 127.5625 C-6.72654726 127.50923321 -8.57810975 127.45649317 -10.4296875 127.40429688 C-14.95332411 127.27562847 -19.4766927 127.13974909 -24 127 C-23.505 125.515 -23.505 125.515 -23 124 C-22.01 123.67 -21.02 123.34 -20 123 C-20 123.66 -20 124.32 -20 125 C-19.01 124.67 -18.02 124.34 -17 124 C-19.97 123.01 -19.97 123.01 -23 122 C-23.66 122.66 -24.32 123.32 -25 124 C-25 122.68 -25 121.36 -25 120 C-23.72125 119.773125 -22.4425 119.54625 -21.125 119.3125 C-17.69714217 118.52300499 -17.69714217 118.52300499 -15.625 115.75 C-15.41875 114.8425 -15.2125 113.935 -15 113 C-14.62875 111.906875 -14.2575 110.81375 -13.875 109.6875 C-13.58625 108.800625 -13.2975 107.91375 -13 107 C-10.69 107.33 -8.38 107.66 -6 108 C-5.62875 107.38125 -5.2575 106.7625 -4.875 106.125 C-2.51396427 103.44915951 -0.36227683 103.02330164 3 102 C3.33 101.34 3.66 100.68 4 100 C2.53633658 100.39753821 1.0791065 100.81881384 -0.375 101.25 C-1.18710938 101.48203125 -1.99921875 101.7140625 -2.8359375 101.953125 C-5.45785454 103.2214892 -5.99382318 104.32423308 -7 107 C-10.875 106.125 -10.875 106.125 -12 105 C-11.7466781 99.68024003 -11.7466781 99.68024003 -11 97 C-8.9375 95.5 -8.9375 95.5 -7 95 C-7.33 96.98 -7.66 98.96 -8 101 C-7.34 101 -6.68 101 -6 101 C-6 98.36 -6 95.72 -6 93 C-8.42919865 92.86559222 -8.42919865 92.86559222 -11 94 C-11.84840638 95.81048475 -11.84840638 95.81048475 -12.4375 97.9375 C-13.1171875 100.1328125 -13.1171875 100.1328125 -14 102 C-17.0625 103.3125 -17.0625 103.3125 -20 104 C-20.66 104.99 -21.32 105.98 -22 107 C-24.31 106.34 -26.62 105.68 -29 105 C-29.495 100.545 -29.495 100.545 -30 96 C-31.11036621 95.98018066 -32.22073242 95.96036133 -33.36474609 95.93994141 C-37.47614602 95.86398919 -41.58718718 95.7752564 -45.69824219 95.68261719 C-47.47909473 95.64428435 -49.26002584 95.60943911 -51.04101562 95.578125 C-53.59794234 95.53256729 -56.1543261 95.47455893 -58.7109375 95.4140625 C-59.50994476 95.40251129 -60.30895203 95.39096008 -61.13217163 95.37905884 C-66.77225659 95.22774341 -66.77225659 95.22774341 -69 93 C-69 90 -69 90 -67 87 C-64.54901516 86.68350439 -62.34403095 86.56254947 -59.88818359 86.56762695 C-59.15637375 86.5574353 -58.4245639 86.54724365 -57.670578 86.53674316 C-55.24645448 86.50649654 -52.8227253 86.49732979 -50.3984375 86.48828125 C-48.71976394 86.47144314 -47.04110306 86.45329409 -45.36245728 86.43388367 C-40.94018515 86.38628293 -36.51796438 86.35653898 -32.09552002 86.33044434 C-27.58441009 86.30068941 -23.07347739 86.25414181 -18.5625 86.20898438 C-9.70842584 86.12283681 -0.85431531 86.05554269 8 86 C8 84.68 8 83.36 8 82 C-18.4 81.67 -44.8 81.34 -72 81 C-71 75 -71 75 -68.41610718 73.15202332 C-64.63765494 71.87780537 -61.28326367 71.55941946 -57.34228516 71.56762695 C-56.22906387 71.55233948 -56.22906387 71.55233948 -55.09335327 71.53674316 C-52.65851174 71.50672867 -50.22406436 71.49736521 -47.7890625 71.48828125 C-46.09368596 71.47142595 -44.39832185 71.45327456 -42.70297241 71.43388367 C-38.2544544 71.3864698 -33.8059868 71.35660486 -29.3572998 71.33044434 C-24.81231736 71.30059524 -20.26750847 71.25407988 -15.72265625 71.20898438 C-6.81519512 71.12304934 2.09230183 71.05566057 11 71 C11.33 71.99 11.66 72.98 12 74 C12.28875 73.360625 12.5775 72.72125 12.875 72.0625 C14 70 14 70 16 69 C16 63.39 16 57.78 16 52 C12.535 52.495 12.535 52.495 9 53 C8.67 52.67 8.34 52.34 8 52 C5.65847159 51.87515846 3.34492415 51.81400709 1.00170898 51.79467773 C0.27004517 51.78477814 -0.46161865 51.77487854 -1.2154541 51.76467896 C-3.64490472 51.73297617 -6.07437493 51.70827207 -8.50390625 51.68359375 C-10.18400087 51.66303178 -11.86409023 51.64203552 -13.54417419 51.62062073 C-17.97467803 51.56532174 -22.40522915 51.51594713 -26.83581543 51.46777344 C-31.35347725 51.4176154 -35.87107008 51.36189967 -40.38867188 51.30664062 C-49.2590557 51.1989634 -58.12949932 51.09753982 -67 51 C-67 49.68 -67 48.36 -67 47 C-66.01 47 -65.02 47 -64 47 C-63.34 46.34 -62.68 45.68 -62 45 C-60.68 45.66 -59.36 46.32 -58 47 C-57.67 46.34 -57.34 45.68 -57 45 C-54.9609375 44.5078125 -54.9609375 44.5078125 -52.375 44.125 C-47.45928408 43.25172095 -44.20576525 41.62860328 -40 39 C-39.34 39 -38.68 39 -38 39 C-37.566875 37.88625 -37.566875 37.88625 -37.125 36.75 C-36 34 -36 34 -34.9375 32.15625 C-33.79895235 29.53759041 -33.80019281 27.59267329 -33.875 24.75 C-33.89304688 23.85796875 -33.91109375 22.9659375 -33.9296875 22.046875 C-33.95289063 21.37140625 -33.97609375 20.6959375 -34 20 C-32.68 20.33 -31.36 20.66 -30 21 C-29.505 19.515 -29.505 19.515 -29 18 C-28.01 18 -27.02 18 -26 18 C-25.505 16.515 -25.505 16.515 -25 15 C-22.34394625 14.01780597 -19.70367523 13.83277066 -16.890625 13.68359375 C-16.13652344 13.64169922 -15.38242188 13.59980469 -14.60546875 13.55664062 C-13.82816406 13.51732422 -13.05085938 13.47800781 -12.25 13.4375 C-11.45722656 13.39431641 -10.66445312 13.35113281 -9.84765625 13.30664062 C-7.89862185 13.20097009 -5.94933252 13.10002034 -4 13 C-3.70351562 12.37609375 -3.40703125 11.7521875 -3.1015625 11.109375 C-1.98017074 8.96202908 -0.78094582 7.61904165 1 6 C0.649375 5.38125 0.29875 4.7625 -0.0625 4.125 C-0.371875 3.42375 -0.68125 2.7225 -1 2 C-0.67 1.34 -0.34 0.68 0 0 Z " fill="#7C7C7C" transform="translate(95,8)"/>
<path d="M0 0 C42.24 0 84.48 0 128 0 C128 46.2 128 92.4 128 140 C125.49078542 141.25460729 124.61169775 140.86211613 121.9375 140.1875 C121.22464844 140.01605469 120.51179688 139.84460938 119.77734375 139.66796875 C118 139 118 139 117 137 C116.90291645 135.6071743 116.86663612 134.20985696 116.86196899 132.81365967 C116.85651566 131.93609512 116.85106232 131.05853058 116.84544373 130.15437317 C116.8444014 129.18916245 116.84335907 128.22395172 116.84228516 127.22949219 C116.83720444 126.21471298 116.83212372 125.19993378 116.82688904 124.15440369 C116.8161692 121.9450645 116.80755538 119.73571434 116.80076981 117.52635956 C116.78900431 114.02957948 116.76955683 110.53292423 116.74765015 107.03619385 C116.68595951 97.09204257 116.63199588 87.14790306 116.59863281 77.20361328 C116.57769005 71.12578969 116.54238683 65.0481918 116.49787521 58.97049713 C116.48370882 56.65329902 116.47499134 54.33606096 116.47182083 52.01882172 C116.46691351 48.77500296 116.44375837 45.53178307 116.41650391 42.28808594 C116.41951004 41.33097214 116.42251617 40.37385834 116.4256134 39.38774109 C116.32819379 31.58183415 114.28040381 26.89505053 108.69140625 21.328125 C107.86189453 20.49925781 107.03238281 19.67039062 106.17773438 18.81640625 C105.31470703 17.96949219 104.45167969 17.12257813 103.5625 16.25 C102.27375977 14.95642578 102.27375977 14.95642578 100.95898438 13.63671875 C94.64461883 7.3762384 91.35678095 4.70827867 82.29394531 4.68115234 C81.1186281 4.66592246 81.1186281 4.66592246 79.91956711 4.6503849 C77.38909095 4.61980584 74.85872699 4.60260897 72.328125 4.5859375 C70.7634993 4.56899905 69.19888285 4.55118198 67.63427734 4.5324707 C61.83962448 4.46933147 56.04479643 4.4231948 50.25 4.375 C37.2975 4.25125 24.345 4.1275 11 4 C11 47.56 11 91.12 11 136 C17.27 136 23.54 136 30 136 C30.99 136.33 31.98 136.66 33 137 C32.67 137.99 32.34 138.98 32 140 C31.34 139.67 30.68 139.34 30 139 C28.00039988 138.960008 25.99952758 138.95653201 24 139 C23.67 139.66 23.34 140.32 23 141 C18.125 140.125 18.125 140.125 17 139 C15.515 139.99 15.515 139.99 14 141 C9.38 141.33 4.76 141.66 0 142 C0 95.14 0 48.28 0 0 Z " fill="#FDFEFD" transform="translate(0,0)"/>
<path d="M0 0 C4.61538462 0 4.61538462 0 7 1 C9.7494403 5.75142793 9.26669659 10.89201106 9.22705078 16.20629883 C9.22734283 17.23115387 9.22763489 18.25600891 9.22793579 19.31192017 C9.22654434 22.69371049 9.21099157 26.07527949 9.1953125 29.45703125 C9.19158172 31.8040098 9.18873506 34.15098991 9.18673706 36.49797058 C9.17910574 42.67113556 9.15946144 48.84420623 9.1373291 55.01733398 C9.11685995 61.31818364 9.10773305 67.61904855 9.09765625 73.91992188 C9.07621517 86.27998932 9.04208517 98.63998681 9 111 C12.63 111.99 16.26 112.98 20 114 C20 120.6 20 127.2 20 134 C-22.24 134 -64.48 134 -108 134 C-108 130.37 -108 126.74 -108 123 C-105.64046906 125.35953094 -105.50858587 126.77895617 -105 130 C-104.15236084 130.03758423 -104.15236084 130.03758423 -103.28759766 130.07592773 C-100.73316258 130.19179956 -98.1791045 130.31456537 -95.625 130.4375 C-94.73554687 130.47681641 -93.84609375 130.51613281 -92.9296875 130.55664062 C-92.07890625 130.59853516 -91.228125 130.64042969 -90.3515625 130.68359375 C-89.17327881 130.73858032 -89.17327881 130.73858032 -87.97119141 130.79467773 C-86 131 -86 131 -84 132 C-82.35060061 131.93775851 -80.70341398 131.80330783 -79.0625 131.625 C-77.74958984 131.48964844 -77.74958984 131.48964844 -76.41015625 131.3515625 C-73.86358482 131.052297 -73.86358482 131.052297 -71 130 C-68.8125 130.4375 -68.8125 130.4375 -67 131 C-67 129.02 -67 127.04 -67 125 C-66.34 125 -65.68 125 -65 125 C-64.566875 125.804375 -64.13375 126.60875 -63.6875 127.4375 C-62.23212941 130.24282331 -62.23212941 130.24282331 -59.3125 130.8125 C-58.549375 130.874375 -57.78625 130.93625 -57 131 C-57.37253906 130.55269531 -57.74507812 130.10539063 -58.12890625 129.64453125 C-62.04116638 124.64493997 -62.04116638 124.64493997 -61.8125 121.0625 C-61.544375 120.381875 -61.27625 119.70125 -61 119 C-59.02 118.505 -59.02 118.505 -57 118 C-57 116.68 -57 115.36 -57 114 C-59.31 113.67 -61.62 113.34 -64 113 C-64 113.66 -64 114.32 -64 115 C-66.31 115 -68.62 115 -71 115 C-71.33 113.68 -71.66 112.36 -72 111 C-69.00044156 109.50022078 -65.90463041 109.82093038 -62.61279297 109.79467773 C-61.45270564 109.77962865 -61.45270564 109.77962865 -60.26918221 109.76427555 C-57.76021467 109.73283783 -55.25123136 109.70809773 -52.7421875 109.68359375 C-51.19538857 109.66519517 -49.64859479 109.64635875 -48.10180664 109.6270752 C-42.35959869 109.55857037 -36.617292 109.49855422 -30.875 109.4375 C-18.04625 109.293125 -5.2175 109.14875 8 109 C7.67 77.65 7.34 46.3 7 14 C6.01 13.67 5.02 13.34 4 13 C4 18.28 4 23.56 4 29 C3.01 29 2.02 29 1 29 C-0.485 29.495 -0.485 29.495 -2 30 C-2 28.02 -2 26.04 -2 24 C-3.485 24.495 -3.485 24.495 -5 25 C-7.4410776 25.0845387 -9.85259213 25.11605786 -12.29296875 25.09765625 C-13.35201164 25.09553383 -13.35201164 25.09553383 -14.43244934 25.09336853 C-16.68417626 25.08777764 -18.93580321 25.07522688 -21.1875 25.0625 C-22.71549335 25.05748382 -24.24348827 25.05292112 -25.77148438 25.04882812 C-29.51436135 25.0378112 -33.25716373 25.02055287 -37 25 C-37.38218767 23.34385343 -37.71395102 21.67542976 -38 20 C-37 19 -37 19 -33.94897461 18.88647461 C-32.60008729 18.88663366 -31.25119386 18.89232388 -29.90234375 18.90234375 C-28.83905602 18.90446617 -28.83905602 18.90446617 -27.75428772 18.90663147 C-25.48198288 18.91224557 -23.20977525 18.92480037 -20.9375 18.9375 C-19.40039204 18.94251319 -17.86328255 18.94707641 -16.32617188 18.95117188 C-12.55074358 18.96221958 -8.77538829 18.97949359 -5 19 C-5 18.34 -5 17.68 -5 17 C-3.515 17.495 -3.515 17.495 -2 18 C-1.505 16.515 -1.505 16.515 -1 15 C-1.969375 14.87625 -2.93875 14.7525 -3.9375 14.625 C-4.948125 14.41875 -5.95875 14.2125 -7 14 C-7.495 13.01 -7.495 13.01 -8 12 C-8.83772949 11.98018066 -9.67545898 11.96036133 -10.53857422 11.93994141 C-13.64365834 11.86189388 -16.74834539 11.77520365 -19.85302734 11.68261719 C-21.85886971 11.62545964 -23.86498918 11.57831404 -25.87109375 11.53125 C-27.12792969 11.49257813 -28.38476562 11.45390625 -29.6796875 11.4140625 C-30.84226074 11.3826416 -32.00483398 11.3512207 -33.20263672 11.31884766 C-36 11 -36 11 -38 9 C-37.625 6.375 -37.625 6.375 -37 4 C-32.4793335 3.97531143 -27.9587061 3.95714551 -23.43798828 3.94506836 C-21.89956987 3.94003448 -20.36115625 3.93320692 -18.82275391 3.92456055 C-16.61359474 3.91245361 -14.40449874 3.90676231 -12.1953125 3.90234375 C-11.50567413 3.89718246 -10.81603577 3.89202118 -10.10549927 3.88670349 C-5.22774341 3.88612829 -5.22774341 3.88612829 -3 5 C-3 5.66 -3 6.32 -3 7 C-2.01 6.34 -1.02 5.68 0 5 C-0.66 5 -1.32 5 -2 5 C-1.125 1.125 -1.125 1.125 0 0 Z " fill="#C1EDF9" transform="translate(108,26)"/>
<path d="M0 0 C5.70283229 2.59711527 8.96654892 6.17711149 12.05859375 11.625 C13.5690132 17.52936693 13.49177464 22.51109126 10.80859375 28.0625 C7.76588162 32.91554086 4.21266814 35.60522151 -1.25390625 37.3125 C-6.97801623 38.1365364 -11.56763575 38.18574722 -16.75390625 35.5 C-17.57890625 34.778125 -18.40390625 34.05625 -19.25390625 33.3125 C-20.33671875 32.69375 -20.33671875 32.69375 -21.44140625 32.0625 C-25.15321057 28.47868894 -26.4023603 23.36582059 -26.69140625 18.3125 C-26.45459045 13.07166345 -24.39339259 8.57211792 -20.79296875 4.76953125 C-14.49623921 -0.6801763 -8.11363645 -2.47487004 0 0 Z " fill="#F3F9F8" transform="translate(49.25390625,14.6875)"/>
<path d="M0 0 C1.02456299 -0.00021904 1.02456299 -0.00021904 2.06982422 -0.0004425 C4.33157507 0.00025517 6.59324397 0.00804074 8.85498047 0.01586914 C10.42153885 0.01773384 11.98809781 0.0191575 13.55465698 0.02015686 C17.68106695 0.02397796 21.80744181 0.03380479 25.93383789 0.04486084 C30.14322434 0.05508369 34.35261644 0.05965636 38.56201172 0.06469727 C46.82374659 0.07542741 55.08545292 0.09249897 63.34716797 0.11352539 C62.35716797 0.77352539 61.36716797 1.43352539 60.34716797 2.11352539 C59.35716797 1.78352539 58.36716797 1.45352539 57.34716797 1.11352539 C57.34716797 1.77352539 57.34716797 2.43352539 57.34716797 3.11352539 C56.35716797 3.44352539 55.36716797 3.77352539 54.34716797 4.11352539 C53.68716797 4.77352539 53.02716797 5.43352539 52.34716797 6.11352539 C48.72216797 6.23852539 48.72216797 6.23852539 45.34716797 6.11352539 C44.02716797 9.08352539 42.70716797 12.05352539 41.34716797 15.11352539 C40.35716797 14.61852539 40.35716797 14.61852539 39.34716797 14.11352539 C39.67716797 11.47352539 40.00716797 8.83352539 40.34716797 6.11352539 C36.38716797 6.11352539 32.42716797 6.11352539 28.34716797 6.11352539 C27.68716797 9.41352539 27.02716797 12.71352539 26.34716797 16.11352539 C24.36716797 16.11352539 22.38716797 16.11352539 20.34716797 16.11352539 C19.85216797 10.66852539 19.85216797 10.66852539 19.34716797 5.11352539 C18.02716797 4.78352539 16.70716797 4.45352539 15.34716797 4.11352539 C13.92941958 5.30205394 13.92941958 5.30205394 14.24951172 8.71118164 C14.25618577 10.19949406 14.26814614 11.68778971 14.28466797 13.17602539 C14.28917969 13.93463867 14.29369141 14.69325195 14.29833984 15.47485352 C14.31016117 17.3544441 14.32809719 19.23399438 14.34716797 21.11352539 C15.57346924 21.11352539 16.79977051 21.11352539 18.06323242 21.11352539 C33.49121094 21.11352539 48.91918945 21.11352539 64.34716797 21.11352539 C64.67716797 19.13352539 65.00716797 17.15352539 65.34716797 15.11352539 C66.66716797 14.78352539 67.98716797 14.45352539 69.34716797 14.11352539 C69.84216797 17.57852539 69.84216797 17.57852539 70.34716797 21.11352539 C74.30716797 21.11352539 78.26716797 21.11352539 82.34716797 21.11352539 C82.34716797 19.79352539 82.34716797 18.47352539 82.34716797 17.11352539 C79.70716797 17.11352539 77.06716797 17.11352539 74.34716797 17.11352539 C74.84216797 15.62852539 74.84216797 15.62852539 75.34716797 14.11352539 C76.66716797 14.44352539 77.98716797 14.77352539 79.34716797 15.11352539 C79.67716797 13.79352539 80.00716797 12.47352539 80.34716797 11.11352539 C81.00716797 11.11352539 81.66716797 11.11352539 82.34716797 11.11352539 C83.34716797 14.11352539 83.34716797 14.11352539 83.34716797 24.11352539 C41.10716797 24.11352539 -1.13283203 24.11352539 -44.65283203 24.11352539 C-44.65283203 20.48352539 -44.65283203 16.85352539 -44.65283203 13.11352539 C-42.29330109 15.47305633 -42.1614179 16.89248157 -41.65283203 20.11352539 C-41.08773926 20.13858154 -40.52264648 20.1636377 -39.94042969 20.18945312 C-37.38599461 20.30532495 -34.83193653 20.42809076 -32.27783203 20.55102539 C-31.38837891 20.5903418 -30.49892578 20.6296582 -29.58251953 20.67016602 C-28.73173828 20.71206055 -27.88095703 20.75395508 -27.00439453 20.79711914 C-26.21887207 20.83377686 -25.43334961 20.87043457 -24.62402344 20.90820312 C-22.65283203 21.11352539 -22.65283203 21.11352539 -20.65283203 22.11352539 C-19.00343264 22.0512839 -17.35624601 21.91683322 -15.71533203 21.73852539 C-14.84005859 21.64829102 -13.96478516 21.55805664 -13.06298828 21.46508789 C-10.51641685 21.1658224 -10.51641685 21.1658224 -7.65283203 20.11352539 C-5.46533203 20.55102539 -5.46533203 20.55102539 -3.65283203 21.11352539 C-3.65283203 19.13352539 -3.65283203 17.15352539 -3.65283203 15.11352539 C-2.99283203 15.11352539 -2.33283203 15.11352539 -1.65283203 15.11352539 C-1.21970703 15.91790039 -0.78658203 16.72227539 -0.34033203 17.55102539 C1.11503856 20.3563487 1.11503856 20.3563487 4.03466797 20.92602539 C5.17935547 21.01883789 5.17935547 21.01883789 6.34716797 21.11352539 C5.97462891 20.6662207 5.60208984 20.21891602 5.21826172 19.75805664 C1.30600159 14.75846536 1.30600159 14.75846536 1.53466797 11.17602539 C1.80279297 10.49540039 2.07091797 9.81477539 2.34716797 9.11352539 C3.66716797 8.78352539 4.98716797 8.45352539 6.34716797 8.11352539 C6.34716797 6.79352539 6.34716797 5.47352539 6.34716797 4.11352539 C4.03716797 3.78352539 1.72716797 3.45352539 -0.65283203 3.11352539 C-0.65283203 3.77352539 -0.65283203 4.43352539 -0.65283203 5.11352539 C-2.96283203 5.11352539 -5.27283203 5.11352539 -7.65283203 5.11352539 C-8.14783203 3.13352539 -8.14783203 3.13352539 -8.65283203 1.11352539 C-5.75368292 -0.33604917 -3.23854903 -0.00580385 0 0 Z " fill="#F3FBFA" transform="translate(44.65283203125,135.886474609375)"/>
<path d="M0 0 C2.64 0 5.28 0 8 0 C7.67 1.65 7.34 3.3 7 5 C9.31 5 11.62 5 14 5 C14 4.34 14 3.68 14 3 C16.375 2.375 16.375 2.375 19 2 C21 4 21 4 21 8 C19.02 8.99 19.02 8.99 17 10 C17.53711723 13.86724404 18.59342098 15.96561775 21 19 C21 19.66 21 20.32 21 21 C18.6875 21.25 18.6875 21.25 16 21 C14.02389614 18.95575462 13 17.8823175 13 15 C12.34 15 11.68 15 11 15 C11 16.98 11 18.96 11 21 C9.63875 20.9690625 9.63875 20.9690625 8.25 20.9375 C5.479179 20.99078502 3.62520719 21.30509221 1 22 C-6.50750751 23.24624625 -6.50750751 23.24624625 -9 22 C-12.3829389 21.80122013 -15.75898237 21.65417639 -19.14648438 21.5703125 C-24.54050351 21.33299543 -24.54050351 21.33299543 -26.9296875 19.6015625 C-29.92739007 15.11594916 -30.20943601 11.34061815 -30 6 C-27.03443433 5.01147811 -24.72714396 4.80347952 -21.625 4.625 C-17.35265598 4.27981724 -14.44845426 3.73498096 -11 1 C-11 1.99 -11 2.98 -11 4 C-8.11785113 3.11785113 -8.11785113 3.11785113 -6 2 C-0.46153846 1.76923077 -0.46153846 1.76923077 2 3 C2.33 2.34 2.66 1.68 3 1 C2.01 0.67 1.02 0.34 0 0 Z " fill="#C2EBF6" transform="translate(30,136)"/>
<path d="M0 0 C4.61538462 0 4.61538462 0 7 1 C9.73165104 5.73484423 9.26692527 10.82141424 9.22705078 16.11450195 C9.22734283 17.12960342 9.22763489 18.1447049 9.22793579 19.19056702 C9.22654443 22.53989258 9.21099211 25.88899463 9.1953125 29.23828125 C9.19158169 31.56283954 9.18873504 33.88739941 9.18673706 36.21195984 C9.179106 42.32594149 9.15946193 48.43982791 9.1373291 54.55377197 C9.11685939 60.79429842 9.10773293 67.03484027 9.09765625 73.27539062 C9.07621563 85.51696889 9.04208595 97.75847652 9 110 C8.01 109.67 7.02 109.34 6 109 C6.66 109 7.32 109 8 109 C7.67 77.65 7.34 46.3 7 14 C6.01 13.67 5.02 13.34 4 13 C4 18.28 4 23.56 4 29 C3.01 29 2.02 29 1 29 C0.01 29.33 -0.98 29.66 -2 30 C-2 28.02 -2 26.04 -2 24 C-2.99 24.33 -3.98 24.66 -5 25 C-7.4410776 25.0845387 -9.85259213 25.11605786 -12.29296875 25.09765625 C-13.35201164 25.09553383 -13.35201164 25.09553383 -14.43244934 25.09336853 C-16.68417626 25.08777764 -18.93580321 25.07522688 -21.1875 25.0625 C-22.71549335 25.05748382 -24.24348827 25.05292112 -25.77148438 25.04882812 C-29.51436135 25.0378112 -33.25716373 25.02055287 -37 25 C-37.38218767 23.34385343 -37.71395102 21.67542976 -38 20 C-37 19 -37 19 -33.94897461 18.88647461 C-32.60008729 18.88663366 -31.25119386 18.89232388 -29.90234375 18.90234375 C-28.83905602 18.90446617 -28.83905602 18.90446617 -27.75428772 18.90663147 C-25.48198288 18.91224557 -23.20977525 18.92480037 -20.9375 18.9375 C-19.40039204 18.94251319 -17.86328255 18.94707641 -16.32617188 18.95117188 C-12.55074358 18.96221958 -8.77538829 18.97949359 -5 19 C-5 18.34 -5 17.68 -5 17 C-4.01 17.33 -3.02 17.66 -2 18 C-1.505 16.515 -1.505 16.515 -1 15 C-1.969375 14.87625 -2.93875 14.7525 -3.9375 14.625 C-4.948125 14.41875 -5.95875 14.2125 -7 14 C-7.33 13.34 -7.66 12.68 -8 12 C-9.25659424 11.970271 -9.25659424 11.970271 -10.53857422 11.93994141 C-13.64365834 11.86189388 -16.74834539 11.77520365 -19.85302734 11.68261719 C-21.85886971 11.62545964 -23.86498918 11.57831404 -25.87109375 11.53125 C-27.12792969 11.49257813 -28.38476562 11.45390625 -29.6796875 11.4140625 C-30.84226074 11.3826416 -32.00483398 11.3512207 -33.20263672 11.31884766 C-36 11 -36 11 -38 9 C-37.625 6.375 -37.625 6.375 -37 4 C-32.4793335 3.97531143 -27.9587061 3.95714551 -23.43798828 3.94506836 C-21.89956987 3.94003448 -20.36115625 3.93320692 -18.82275391 3.92456055 C-16.61359474 3.91245361 -14.40449874 3.90676231 -12.1953125 3.90234375 C-11.50567413 3.89718246 -10.81603577 3.89202118 -10.10549927 3.88670349 C-5.22774341 3.88612829 -5.22774341 3.88612829 -3 5 C-3 5.66 -3 6.32 -3 7 C-2.01 6.34 -1.02 5.68 0 5 C-0.66 5 -1.32 5 -2 5 C-1.125 1.125 -1.125 1.125 0 0 Z " fill="#818181" transform="translate(108,26)"/>
<path d="M0 0 C0.74185547 -0.00029205 1.48371094 -0.00058411 2.24804688 -0.00088501 C4.69380494 0.00050545 7.13925626 0.01605313 9.58496094 0.03173828 C11.28318109 0.03546942 12.98140339 0.03831592 14.67962646 0.04031372 C19.144714 0.04794221 23.609671 0.06758397 28.07470703 0.08972168 C32.63279454 0.11019699 37.19090318 0.11931904 41.74902344 0.12939453 C50.68918489 0.1508306 59.62924955 0.1849571 68.56933594 0.22705078 C68.56933594 1.87705078 68.56933594 3.52705078 68.56933594 5.22705078 C69.55933594 5.72205078 69.55933594 5.72205078 70.56933594 6.22705078 C70.56933594 7.21705078 70.56933594 8.20705078 70.56933594 9.22705078 C70.05371094 9.06595825 69.53808594 8.90486572 69.00683594 8.7388916 C65.83024653 8.07185237 62.81620276 8.0699291 59.56933594 8.03759766 C58.87291992 8.02930435 58.17650391 8.02101105 57.45898438 8.01246643 C55.95086907 7.99510708 54.44272742 7.97992914 52.93457031 7.96669006 C50.5471303 7.94560467 48.15982234 7.91858711 45.77246094 7.89001465 C40.70480363 7.83041569 35.63708464 7.77820265 30.56933594 7.72705078 C24.69622699 7.66776992 18.82318373 7.60546072 12.95019531 7.53517151 C10.5993055 7.50863902 8.24840882 7.48780044 5.89746094 7.46716309 C4.45474936 7.45055658 3.0120408 7.43368443 1.56933594 7.41650391 C0.31121094 7.40397583 -0.94691406 7.39144775 -2.24316406 7.37854004 C-5.73552365 7.21256201 -8.31994947 6.78240808 -11.43066406 5.22705078 C-11.43066406 4.23705078 -11.43066406 3.24705078 -11.43066406 2.22705078 C-7.75521814 -0.13250106 -4.2221529 -0.0436029 0 0 Z " fill="#7A7A7A" transform="translate(35.4306640625,65.77294921875)"/>
<path d="M0 0 C0.74446381 0.00359528 1.48892761 0.00719055 2.25595093 0.01089478 C3.0363826 0.01074875 3.81681427 0.01060272 4.62089539 0.01045227 C7.21273534 0.01115158 9.80450432 0.01894481 12.39633179 0.02676392 C14.18852194 0.02862803 15.9807126 0.03005196 17.77290344 0.03105164 C22.49938351 0.03487733 27.22583305 0.04470805 31.95230103 0.05575562 C36.77153104 0.06596863 41.59076596 0.07054902 46.41000366 0.07559204 C55.87290773 0.08633027 65.3357891 0.10340731 74.79867554 0.12442017 C75.29367554 2.10442017 75.29367554 2.10442017 75.79867554 4.12442017 C72.1586363 6.55111299 69.50142404 6.39353403 65.29794312 6.35147095 C64.53672653 6.351763 63.77550995 6.35205505 62.9912262 6.35235596 C60.47510378 6.3509626 57.95927748 6.33540123 55.44320679 6.31973267 C53.69871686 6.31600256 51.95422483 6.31315557 50.20973206 6.31115723 C45.6180442 6.30352061 41.02648284 6.28387188 36.43484497 6.26174927 C31.74949861 6.24129145 27.06413181 6.23215565 22.37875366 6.22207642 C13.1853387 6.20062602 3.99201764 6.16648972 -5.20132446 6.12442017 C-5.58351213 4.46827359 -5.91527548 2.79984992 -6.20132446 1.12442017 C-4.48145241 -0.59545189 -2.29255418 0.00467229 0 0 Z " fill="#F5F5F5" transform="translate(29.201324462890625,73.87557983398438)"/>
<path d="M0 0 C3.33388318 0.16951948 4.94441987 0.43192871 7.6875 2.1875 C7.6875 1.5275 7.6875 0.8675 7.6875 0.1875 C13.6275 0.1875 19.5675 0.1875 25.6875 0.1875 C26.0175 1.5075 26.3475 2.8275 26.6875 4.1875 C23.55400268 5.23199911 22.69781744 5.12173645 19.6875 4.1875 C19.6875 6.1675 19.6875 8.1475 19.6875 10.1875 C20.450625 10.001875 21.21375 9.81625 22 9.625 C24.6875 9.1875 24.6875 9.1875 27.6875 10.1875 C27.0275 11.5075 26.3675 12.8275 25.6875 14.1875 C25.0275 14.1875 24.3675 14.1875 23.6875 14.1875 C23.6875 14.8475 23.6875 15.5075 23.6875 16.1875 C15.9375 17.3125 15.9375 17.3125 13.6875 16.1875 C10.3045611 15.98872013 6.92851763 15.84167639 3.54101562 15.7578125 C-1.8397786 15.52107728 -1.8397786 15.52107728 -4.31640625 13.7734375 C-5.3125 12.1875 -5.3125 12.1875 -5.3125 10.1875 C-2.6725 10.5175 -0.0325 10.8475 2.6875 11.1875 C2.6875 10.5275 2.6875 9.8675 2.6875 9.1875 C1.73875 9.06375 0.79 8.94 -0.1875 8.8125 C-3.3125 8.1875 -3.3125 8.1875 -5.3125 6.1875 C-4.58960843 0.25978916 -4.58960843 0.25978916 0 0 Z " fill="#D7F5FA" transform="translate(7.3125,141.8125)"/>
<path d="M0 0 C0.74446381 0.00359528 1.48892761 0.00719055 2.25595093 0.01089478 C3.0363826 0.01074875 3.81681427 0.01060272 4.62089539 0.01045227 C7.21273534 0.01115158 9.80450432 0.01894481 12.39633179 0.02676392 C14.18852194 0.02862803 15.9807126 0.03005196 17.77290344 0.03105164 C22.49938351 0.03487733 27.22583305 0.04470805 31.95230103 0.05575562 C36.77153104 0.06596863 41.59076596 0.07054902 46.41000366 0.07559204 C55.87290773 0.08633027 65.3357891 0.10340731 74.79867554 0.12442017 C75.36117554 2.06192017 75.36117554 2.06192017 75.79867554 4.12442017 C74.07880348 5.84429222 71.88990525 5.24416804 69.59735107 5.24884033 C68.48065536 5.24344742 68.48065536 5.24344742 67.34140015 5.23794556 C66.56096848 5.23809158 65.7805368 5.23823761 64.97645569 5.23838806 C62.38461574 5.23768875 59.79284675 5.22989553 57.20101929 5.22207642 C55.40882913 5.2202123 53.61663847 5.21878837 51.82444763 5.2177887 C47.09796756 5.213963 42.37151802 5.20413228 37.64505005 5.19308472 C32.82582004 5.1828717 28.00658512 5.17829131 23.18734741 5.17324829 C13.72444334 5.16251006 4.26156197 5.14543303 -5.20132446 5.12442017 C-5.76382446 3.18692017 -5.76382446 3.18692017 -6.20132446 1.12442017 C-4.48145241 -0.59545189 -2.29255418 0.00467229 0 0 Z " fill="#FBFBFB" transform="translate(29.201324462890625,59.875579833984375)"/>
<path d="M0 0 C0.73511307 0.00359528 1.47022614 0.00719055 2.22761536 0.01089478 C2.99829346 0.01074875 3.76897156 0.01060272 4.56300354 0.01045227 C7.12237823 0.01115157 9.68168104 0.01894471 12.24104309 0.02676392 C14.01081299 0.02862804 15.7805834 0.03005197 17.550354 0.03105164 C22.2176505 0.03487728 26.88491607 0.04470796 31.55220032 0.05575562 C36.31110719 0.06596873 41.07001905 0.07054904 45.82893372 0.07559204 C55.17334837 0.08633019 64.51774004 0.10340717 73.86213684 0.12442017 C74.85213684 2.10442017 74.85213684 2.10442017 75.86213684 4.12442017 C74.14226479 5.84429222 71.95336655 5.24416804 69.66081238 5.24884033 C68.54411667 5.24344742 68.54411667 5.24344742 67.40486145 5.23794556 C66.62442978 5.23809158 65.84399811 5.23823761 65.03991699 5.23838806 C62.44807704 5.23768875 59.85630806 5.22989553 57.26448059 5.22207642 C55.47229044 5.2202123 53.68009978 5.21878837 51.88790894 5.2177887 C47.16142887 5.213963 42.43497933 5.20413228 37.70851135 5.19308472 C32.88928134 5.1828717 28.07004642 5.17829131 23.25080872 5.17324829 C13.78790465 5.16251006 4.32502328 5.14543303 -5.13786316 5.12442017 C-5.70036316 3.18692017 -5.70036316 3.18692017 -6.13786316 1.12442017 C-4.42956906 -0.58387393 -2.27781939 0.0047009 0 0 Z " fill="#FDFDFD" transform="translate(29.137863159179688,88.87557983398438)"/>
<path d="M0 0 C3.3 0 6.6 0 10 0 C10 2.64 10 5.28 10 8 C12.31 8 14.62 8 17 8 C17 11.3 17 14.6 17 18 C14.69 18.33 12.38 18.66 10 19 C9.67 21.31 9.34 23.62 9 26 C6.03 26 3.06 26 0 26 C0 23.36 0 20.72 0 18 C-2.64 18 -5.28 18 -8 18 C-8 14.7 -8 11.4 -8 8 C-5.36 8 -2.72 8 0 8 C0 5.36 0 2.72 0 0 Z " fill="#2B87BB" transform="translate(38,20)"/>
<path d="M0 0 C0.66 0.66 1.32 1.32 2 2 C4.19704511 2.67651207 4.19704511 2.67651207 6.625 3.125 C8.06875 3.41375 9.5125 3.7025 11 4 C11 7.3 11 10.6 11 14 C10.67 13.01 10.34 12.02 10 11 C9.01 11.495 9.01 11.495 8 12 C7.67 12.99 7.34 13.98 7 15 C5.68 15 4.36 15 3 15 C2.67 15.66 2.34 16.32 2 17 C4.64 17 7.28 17 10 17 C10 18.32 10 19.64 10 21 C6.04 21 2.08 21 -2 21 C-2.33 18.69 -2.66 16.38 -3 14 C-3.99 14 -4.98 14 -6 14 C-5.34 11.36 -4.68 8.72 -4 6 C-5.32 6 -6.64 6 -8 6 C-8.66 8.64 -9.32 11.28 -10 14 C-12 11 -12 11 -12.8125 8.375 C-13.204375 7.59125 -13.59625 6.8075 -14 6 C-16.54775306 5.10613836 -16.54775306 5.10613836 -19 5 C-18.67 4.34 -18.34 3.68 -18 3 C-17.01 3 -16.02 3 -15 3 C-15 2.34 -15 1.68 -15 1 C-10.0858728 -0.00802609 -5.00527017 -0.59062188 0 0 Z " fill="#E2F8FD" transform="translate(117,136)"/>
<path d="M0 0 C1.72974441 0.00015918 3.45949355 0.0058569 5.18920898 0.01586914 C6.09783188 0.01728409 7.00645477 0.01869904 7.94261169 0.02015686 C10.85687494 0.02577346 13.77106254 0.03832874 16.68530273 0.05102539 C18.65600475 0.05603825 20.62670797 0.06060153 22.59741211 0.06469727 C27.43923832 0.07574828 32.28100768 0.09302401 37.12280273 0.11352539 C37.50499041 1.76967196 37.83675375 3.43809563 38.12280273 5.11352539 C37.12280273 6.11352539 37.12280273 6.11352539 33.24560547 6.22705078 C31.51586106 6.2268916 29.78611192 6.22119389 28.05639648 6.21118164 C27.14777359 6.20976669 26.2391507 6.20835175 25.30299377 6.20689392 C22.38873053 6.20127732 19.47454293 6.18872204 16.56030273 6.17602539 C14.58960072 6.17101253 12.6188975 6.16644925 10.64819336 6.16235352 C5.80636715 6.1513025 0.96459778 6.13402677 -3.87719727 6.11352539 C-4.25938494 4.45737882 -4.59114828 2.78895515 -4.87719727 1.11352539 C-3.87719727 0.11352539 -3.87719727 0.11352539 0 0 Z " fill="#F4F4F4" transform="translate(27.877197265625,117.886474609375)"/>
<path d="M0 0 C1.32751785 0.00212242 1.32751785 0.00212242 2.68185425 0.00428772 C5.51449941 0.00989485 8.34706614 0.02244854 11.1796875 0.03515625 C13.09765511 0.04017033 15.01562396 0.0447334 16.93359375 0.04882812 C21.64065532 0.05986659 26.3476581 0.077136 31.0546875 0.09765625 C31.43687517 1.75380282 31.76863852 3.42222649 32.0546875 5.09765625 C31.0546875 6.09765625 31.0546875 6.09765625 27.17749023 6.21118164 C25.44774583 6.21102246 23.71799669 6.20532474 21.98828125 6.1953125 C21.07965836 6.19389755 20.17103546 6.1924826 19.23487854 6.19102478 C16.32061529 6.18540818 13.40642769 6.1728529 10.4921875 6.16015625 C8.52148548 6.15514339 6.55078226 6.15058011 4.58007812 6.14648438 C-0.26174809 6.13543336 -5.10351745 6.11815763 -9.9453125 6.09765625 C-10.2753125 4.44765625 -10.6053125 2.79765625 -10.9453125 1.09765625 C-7.56138242 -0.59430879 -3.72053459 -0.02220924 0 0 Z " fill="#F1F1F1" transform="translate(33.9453125,102.90234375)"/>
<path d="M0 0 C5.31112463 2.67881592 9.04426674 6.37879733 11.37109375 11.8671875 C13.06840962 17.6233022 12.64952328 22.33342 10.0625 27.75 C7.1179408 32.60937371 3.1111723 34.78404512 -2 37 C-2.66 36.01 -3.32 35.02 -4 34 C-3.01 34 -2.02 34 -1 34 C-0.67 33.34 -0.34 32.68 0 32 C0.45375 31.48566406 0.9075 30.97132812 1.375 30.44140625 C6.17201261 24.89486043 6.97339936 20.23537406 7 13 C4.36 12.34 1.72 11.68 -1 11 C-1 8.36 -1 5.72 -1 3 C-4.3 3 -7.6 3 -11 3 C-11 2.01 -11 1.02 -11 0 C-7.43337056 -1.78331472 -3.7659929 -0.96101892 0 0 Z " fill="#F2F6F2" transform="translate(50,15)"/>
<path d="M0 0 C1.65 0.33 3.3 0.66 5 1 C5.125 6.75 5.125 6.75 4 9 C3.34 9 2.68 9 2 9 C2.33 7.02 2.66 5.04 3 3 C-0.12606964 4.60480784 -0.12606964 4.60480784 -0.51171875 6.9453125 C-0.56972656 7.66460937 -0.62773438 8.38390625 -0.6875 9.125 C-0.8421875 11.043125 -0.8421875 11.043125 -1 13 C0.32 13.66 1.64 14.32 3 15 C3.2165625 13.824375 3.2165625 13.824375 3.4375 12.625 C5 10 5 10 7.13671875 9.22265625 C9.41974691 8.73164391 11.68695927 8.31887599 14 8 C13.67 8.99 13.34 9.98 13 11 C10.67328135 12.01529541 8.3396553 13.01488198 6 14 C5.01 15.485 5.01 15.485 4 17 C1.4375 17.25 1.4375 17.25 -1 17 C-1.33 16.67 -1.66 16.34 -2 16 C-2.30292969 16.71027344 -2.60585937 17.42054687 -2.91796875 18.15234375 C-3.33691406 19.07144531 -3.75585938 19.99054688 -4.1875 20.9375 C-4.59355469 21.85402344 -4.99960938 22.77054688 -5.41796875 23.71484375 C-7 26 -7 26 -9.67578125 26.81640625 C-10.44277344 26.87699219 -11.20976563 26.93757813 -12 27 C-14.49639273 23.25541091 -14.19937786 21.53608483 -13.609375 17.23046875 C-12.65579506 13.74012167 -10.88277104 12.07827679 -8 10 C-6.68 10 -5.36 10 -4 10 C-3.896875 9.0925 -3.79375 8.185 -3.6875 7.25 C-2.99585051 3.98038425 -2.17865079 2.46282263 0 0 Z " fill="#EDEDED" transform="translate(85,100)"/>
<path d="M0 0 C0 7.59 0 15.18 0 23 C-1.485 22.505 -1.485 22.505 -3 22 C-3.99 22.99 -4.98 23.98 -6 25 C-6.495 23.515 -6.495 23.515 -7 22 C-8.485 21.505 -8.485 21.505 -10 21 C-9.01 20.505 -9.01 20.505 -8 20 C-6.8859042 15.82214075 -6.87250003 13.72312495 -9 10 C-8.67 9.34 -8.34 8.68 -8 8 C-34.07 8 -60.14 8 -87 8 C-87 7.67 -87 7.34 -87 7 C-47.895 6.505 -47.895 6.505 -8 6 C-7.67 4.68 -7.34 3.36 -7 2 C-2.2 0 -2.2 0 0 0 Z " fill="#8A8A8A" transform="translate(112,58)"/>
<path d="M0 0 C0.33 0 0.66 0 1 0 C1 42.57 1 85.14 1 129 C7.27 129 13.54 129 20 129 C20.99 129.33 21.98 129.66 23 130 C22.67 130.99 22.34 131.98 22 133 C21.34 132.67 20.68 132.34 20 132 C18.00039988 131.960008 15.99952758 131.95653201 14 132 C13.67 132.66 13.34 133.32 13 134 C8.125 133.125 8.125 133.125 7 132 C5.515 132.99 5.515 132.99 4 134 C1.08203125 134.4140625 1.08203125 134.4140625 -2.1875 134.625 C-3.81751953 134.73714844 -3.81751953 134.73714844 -5.48046875 134.8515625 C-6.31191406 134.90054688 -7.14335938 134.94953125 -8 135 C-8.33 134.34 -8.66 133.68 -9 133 C-8.05125 132.9175 -7.1025 132.835 -6.125 132.75 C-2.96654271 132.36049472 -2.96654271 132.36049472 -1.82209206 130.28689957 C-0.86089751 127.61304403 -0.73824334 125.50136802 -0.7215271 122.65960693 C-0.71036362 121.57709656 -0.69920013 120.49458618 -0.68769836 119.37927246 C-0.68553818 118.19675903 -0.68337799 117.01424561 -0.68115234 115.79589844 C-0.67110672 114.5468573 -0.6610611 113.29781616 -0.65071106 112.01092529 C-0.62511939 108.58974742 -0.60826412 105.16873538 -0.59528303 101.74750042 C-0.57964906 98.17066923 -0.5528597 94.59392206 -0.5272522 91.01715088 C-0.48046909 84.24578275 -0.44372275 77.4743988 -0.41057932 70.70295167 C-0.37235461 62.99315927 -0.32294537 55.28345125 -0.27259517 47.57372999 C-0.16928229 31.71588099 -0.08001982 15.85798467 0 0 Z " fill="#F2F3F3" transform="translate(10,7)"/>
<path d="M0 0 C1.34888732 0.00015905 2.69778075 0.00584927 4.04663086 0.01586914 C5.10991859 0.01799156 5.10991859 0.01799156 6.19468689 0.02015686 C8.46699173 0.02577096 10.73919936 0.03832576 13.01147461 0.05102539 C14.54858257 0.05603858 16.08569206 0.0606018 17.62280273 0.06469727 C21.39823103 0.07574497 25.17358632 0.09301898 28.94897461 0.11352539 C29.33116228 1.76967196 29.66292563 3.43809563 29.94897461 5.11352539 C28.94897461 6.11352539 28.94897461 6.11352539 25.89794922 6.22705078 C24.5490619 6.22689174 23.20016847 6.22120151 21.85131836 6.21118164 C20.78803062 6.20905922 20.78803062 6.20905922 19.70326233 6.20689392 C17.43095749 6.20127982 15.15874986 6.18872502 12.88647461 6.17602539 C11.34936665 6.1710122 9.81225716 6.16644898 8.27514648 6.16235352 C4.49971819 6.15130581 0.7243629 6.1340318 -3.05102539 6.11352539 C-3.43321306 4.45737882 -3.76497641 2.78895515 -4.05102539 1.11352539 C-3.05102539 0.11352539 -3.05102539 0.11352539 0 0 Z " fill="#FCFCFC" transform="translate(74.051025390625,29.886474609375)"/>
<path d="M0 0 C1.34888732 0.00015905 2.69778075 0.00584927 4.04663086 0.01586914 C5.10991859 0.01799156 5.10991859 0.01799156 6.19468689 0.02015686 C8.46699173 0.02577096 10.73919936 0.03832576 13.01147461 0.05102539 C14.54858257 0.05603858 16.08569206 0.0606018 17.62280273 0.06469727 C21.39823103 0.07574497 25.17358632 0.09301898 28.94897461 0.11352539 C29.33116228 1.76967196 29.66292563 3.43809563 29.94897461 5.11352539 C28.94897461 6.11352539 28.94897461 6.11352539 25.89794922 6.22705078 C24.5490619 6.22689174 23.20016847 6.22120151 21.85131836 6.21118164 C20.78803062 6.20905922 20.78803062 6.20905922 19.70326233 6.20689392 C17.43095749 6.20127982 15.15874986 6.18872502 12.88647461 6.17602539 C11.34936665 6.1710122 9.81225716 6.16644898 8.27514648 6.16235352 C4.49971819 6.15130581 0.7243629 6.1340318 -3.05102539 6.11352539 C-3.43321306 4.45737882 -3.76497641 2.78895515 -4.05102539 1.11352539 C-3.05102539 0.11352539 -3.05102539 0.11352539 0 0 Z " fill="#F4F4F4" transform="translate(74.051025390625,44.886474609375)"/>
<path d="M0 0 C1.65 0 3.3 0 5 0 C5.66 2.97 6.32 5.94 7 9 C8.65 9 10.3 9 12 9 C12.33 10.32 12.66 11.64 13 13 C12.030625 13.268125 11.06125 13.53625 10.0625 13.8125 C9.051875 14.204375 8.04125 14.59625 7 15 C6.67 15.99 6.34 16.98 6 18 C5.34 18 4.68 18 4 18 C4 19.32 4 20.64 4 22 C2.68 22 1.36 22 0 22 C-0.226875 21.05125 -0.45375 20.1025 -0.6875 19.125 C-1.69083714 15.80676612 -1.69083714 15.80676612 -4.625 14.625 C-5.40875 14.41875 -6.1925 14.2125 -7 14 C-6.8125 11.6875 -6.8125 11.6875 -6 9 C-5.175 8.525625 -4.35 8.05125 -3.5 7.5625 C-0.65646168 6.18556314 -0.65646168 6.18556314 -0.1875 2.8125 C-0.125625 1.884375 -0.06375 0.95625 0 0 Z " fill="#058CE4" transform="translate(40,22)"/>
<path d="M0 0 C4.26838806 -0.02491426 8.53673639 -0.04296047 12.80517578 -0.05493164 C14.25407652 -0.05992785 15.70297231 -0.06672709 17.15185547 -0.07543945 C31.97156783 -0.16225376 31.97156783 -0.16225376 39 1 C39 1.33 39 1.66 39 2 C58.8 2.495 58.8 2.495 79 3 C79 3.33 79 3.66 79 4 C69.01226183 4.13061288 59.02452095 4.26101646 49.03677654 4.39115143 C44.3992722 4.45158224 39.76176882 4.51208566 35.12426758 4.57275391 C30.65039601 4.63127888 26.17652202 4.68961458 21.70264626 4.74781799 C19.99418868 4.77007784 18.285732 4.79240637 16.57727623 4.81480408 C14.18783165 4.84611787 11.79838404 4.87718942 9.40893555 4.90820312 C8.34510399 4.92222923 8.34510399 4.92222923 7.25978088 4.9365387 C4.50622689 4.97207295 1.75382433 5 -1 5 C-0.67 3.35 -0.34 1.7 0 0 Z " fill="#E5E5E6" transform="translate(9,0)"/>
<path d="M0 0 C0.33 0.99 0.66 1.98 1 3 C1.33 3.33 1.66 3.66 2 4 C4.02919843 3.74276031 4.02919843 3.74276031 6 3 C6.33 2.34 6.66 1.68 7 1 C7.33 1.66 7.66 2.32 8 3 C9.89533342 3.46523063 9.89533342 3.46523063 12.0625 3.625 C13.361875 3.74875 14.66125 3.8725 16 4 C16 4.99 16 5.98 16 7 C12.92382812 7.29296875 12.92382812 7.29296875 9.84765625 7.5859375 C9.23792969 7.72257812 8.62820312 7.85921875 8 8 C7.67 8.66 7.34 9.32 7 10 C7 9.34 7 8.68 7 8 C5.53633658 8.39753821 4.0791065 8.81881384 2.625 9.25 C1.81289062 9.48203125 1.00078125 9.7140625 0.1640625 9.953125 C-2.45785454 11.2214892 -2.99382318 12.32423308 -4 15 C-7.875 14.125 -7.875 14.125 -9 13 C-8.7466781 7.68024003 -8.7466781 7.68024003 -8 5 C-5.9375 3.5 -5.9375 3.5 -4 3 C-4.33 4.98 -4.66 6.96 -5 9 C-4.34 9 -3.68 9 -3 9 C-2.87625 7.700625 -2.7525 6.40125 -2.625 5.0625 C-2.4140625 2.84765625 -2.4140625 2.84765625 -2 1 C-1.34 0.67 -0.68 0.34 0 0 Z " fill="#828282" transform="translate(92,100)"/>
<path d="M0 0 C1.32 0 2.64 0 4 0 C4.33 0.99 4.66 1.98 5 3 C5.391875 2.505 5.78375 2.01 6.1875 1.5 C8.55091715 -0.45593143 10.01435003 -0.24207973 13 0 C12.484375 0.556875 11.96875 1.11375 11.4375 1.6875 C9.75709032 3.90106421 9.75709032 3.90106421 10.125 6.5 C11.04749535 9.13570099 12.27684766 10.82732966 14 13 C14 13.66 14 14.32 14 15 C11.6875 15.25 11.6875 15.25 9 15 C7.02389614 12.95575462 6 11.8823175 6 9 C5.34 9 4.68 9 4 9 C4 10.98 4 12.96 4 15 C2.68 15 1.36 15 0 15 C0 10.05 0 5.1 0 0 Z " fill="#1F89C5" transform="translate(37,142)"/>
<path d="M0 0 C2.64 0 5.28 0 8 0 C7.34 1.98 6.68 3.96 6 6 C-0.93 6 -7.86 6 -15 6 C-15 6.66 -15 7.32 -15 8 C-15.515625 7.835 -16.03125 7.67 -16.5625 7.5 C-19.73363876 6.84951 -22.77218334 6.9379266 -26 7 C-26.33 8.65 -26.66 10.3 -27 12 C-23.535 13.485 -23.535 13.485 -20 15 C-20 15.66 -20 16.32 -20 17 C-21.27875 16.896875 -22.5575 16.79375 -23.875 16.6875 C-24.59429688 16.62949219 -25.31359375 16.57148438 -26.0546875 16.51171875 C-28 16 -28 16 -30 13 C-30.07905064 10.66800612 -30.08798769 8.33167378 -30 6 C-27.03443433 5.01147811 -24.72714396 4.80347952 -21.625 4.625 C-17.35265598 4.27981724 -14.44845426 3.73498096 -11 1 C-11 1.99 -11 2.98 -11 4 C-8.11785113 3.11785113 -8.11785113 3.11785113 -6 2 C-0.46153846 1.76923077 -0.46153846 1.76923077 2 3 C2.33 2.34 2.66 1.68 3 1 C2.01 0.67 1.02 0.34 0 0 Z " fill="#E8F6FA" transform="translate(30,136)"/>
<path d="M0 0 C2.32421875 0.12890625 2.32421875 0.12890625 5 1 C6.58203125 3.65234375 6.58203125 3.65234375 7.8125 6.9375 C8.23144531 8.01902344 8.65039062 9.10054687 9.08203125 10.21484375 C10 13 10 13 10 15 C8.35 14.67 6.7 14.34 5 14 C5 13.34 5 12.68 5 12 C3.02 12 1.04 12 -1 12 C-1 12.99 -1 13.98 -1 15 C-2.32 15 -3.64 15 -5 15 C-3.97137215 9.55432314 -2.75385216 4.88182883 0 0 Z " fill="#2B88B9" transform="translate(91,142)"/>
<path d="M0 0 C3.63 0 7.26 0 11 0 C11 0.99 11 1.98 11 3 C8.69 3 6.38 3 4 3 C4 3.66 4 4.32 4 5 C5.65 5 7.3 5 9 5 C9 6.32 9 7.64 9 9 C7.68 9 6.36 9 5 9 C4.67 9.66 4.34 10.32 4 11 C6.64 11 9.28 11 12 11 C12 12.32 12 13.64 12 15 C8.04 15 4.08 15 0 15 C0 10.05 0 5.1 0 0 Z " fill="#328DBE" transform="translate(115,142)"/>
<path d="M0 0 C0.87454834 0.00523682 1.74909668 0.01047363 2.65014648 0.01586914 C3.59438477 0.0190918 4.53862305 0.02231445 5.51147461 0.02563477 C6.50469727 0.03401367 7.49791992 0.04239258 8.52124023 0.05102539 C9.51833008 0.05553711 10.51541992 0.06004883 11.54272461 0.06469727 C14.01478872 0.07652532 16.48673541 0.0930069 18.95874023 0.11352539 C19.00146124 1.77964444 18.99937856 3.44735424 18.95874023 5.11352539 C17.95874023 6.11352539 17.95874023 6.11352539 16.00927734 6.22705078 C15.17662354 6.22181396 14.34396973 6.21657715 13.48608398 6.21118164 C12.58696289 6.20795898 11.6878418 6.20473633 10.76147461 6.20141602 C9.81594727 6.19303711 8.87041992 6.1846582 7.89624023 6.17602539 C6.9468457 6.17151367 5.99745117 6.16700195 5.01928711 6.16235352 C2.66570958 6.15052649 0.31225546 6.13404564 -2.04125977 6.11352539 C-2.42344744 4.45737882 -2.75521078 2.78895515 -3.04125977 1.11352539 C-2.04125977 0.11352539 -2.04125977 0.11352539 0 0 Z " fill="#EFEFEF" transform="translate(73.041259765625,15.886474609375)"/>
<path d="M0 0 C1.134375 0.020625 2.26875 0.04125 3.4375 0.0625 C4.0975 1.3825 4.7575 2.7025 5.4375 4.0625 C3.1275 3.7325 0.8175 3.4025 -1.5625 3.0625 C-1.5625 3.7225 -1.5625 4.3825 -1.5625 5.0625 C0.7475 5.3925 3.0575 5.7225 5.4375 6.0625 C6.7635274 11.48715753 6.7635274 11.48715753 5.375 13.9375 C2.57753001 15.56183741 0.61384515 15.45954314 -2.5625 15.0625 C-4.4375 13.6875 -4.4375 13.6875 -5.5625 12.0625 C-5.5625 11.4025 -5.5625 10.7425 -5.5625 10.0625 C-2.9225 10.3925 -0.2825 10.7225 2.4375 11.0625 C2.4375 10.4025 2.4375 9.7425 2.4375 9.0625 C1.48875 8.93875 0.54 8.815 -0.4375 8.6875 C-3.5625 8.0625 -3.5625 8.0625 -5.5625 6.0625 C-4.83351201 0.08479846 -4.83351201 0.08479846 0 0 Z " fill="#2586C1" transform="translate(7.5625,141.9375)"/>
<path d="M0 0 C3.63 0 7.26 0 11 0 C11 0.99 11 1.98 11 3 C8.36 3 5.72 3 3 3 C3 3.66 3 4.32 3 5 C4.65 5 6.3 5 8 5 C8 6.32 8 7.64 8 9 C6.68 9 5.36 9 4 9 C4 9.66 4 10.32 4 11 C6.31 11 8.62 11 11 11 C11 12.32 11 13.64 11 15 C7.37 15 3.74 15 0 15 C0 10.05 0 5.1 0 0 Z " fill="#2C7CA8" transform="translate(73,142)"/>
<path d="M0 0 C2.475 0.99 2.475 0.99 5 2 C5 2.99 5 3.98 5 5 C5.66 5 6.32 5 7 5 C6.43623218 8.94637474 5.4640248 11.83196811 3 15 C0.3125 15.8125 0.3125 15.8125 -2 16 C-4.52460333 12.21309501 -4.07145751 10.50152329 -3.4921875 6.1640625 C-2.8959763 3.54262595 -1.89795449 1.89795449 0 0 Z " fill="#EBECEC" transform="translate(75,111)"/>
<path d="M0 0 C1.32 0 2.64 0 4 0 C4.66 1.65 5.32 3.3 6 5 C7.93798263 2.22739701 7.93798263 2.22739701 9 0 C10.32 0 11.64 0 13 0 C11.9318153 5.11365014 10.76892524 10.07227969 9 15 C7.35 15 5.7 15 4 15 C3.32779649 13.06441401 2.66241923 11.12645628 2 9.1875 C1.62875 8.10855469 1.2575 7.02960938 0.875 5.91796875 C0 3 0 3 0 0 Z " fill="#3E8CC5" transform="translate(100,142)"/>
<path d="M0 0 C0.33 1.32 0.66 2.64 1 4 C-2.13349732 5.04449911 -2.98968256 4.93423645 -6 4 C-6 5.98 -6 7.96 -6 10 C-5.236875 9.814375 -4.47375 9.62875 -3.6875 9.4375 C-1 9 -1 9 2 10 C1.4375 11.9375 1.4375 11.9375 0 14 C-3.375 15 -3.375 15 -7 15 C-9.4375 13.5625 -9.4375 13.5625 -11 11 C-11.62155491 7.48256426 -11.63310789 4.26621578 -10 1 C-6.72032242 -0.63983879 -3.62861311 -0.17845638 0 0 Z " fill="#2888B9" transform="translate(33,142)"/>
<path d="M0 0 C1.20366211 0.00483398 1.20366211 0.00483398 2.43164062 0.00976562 C3.68170898 0.02233398 3.68170898 0.02233398 4.95703125 0.03515625 C5.80201172 0.03966797 6.64699219 0.04417969 7.51757812 0.04882812 C9.6015928 0.06060222 11.68557102 0.07853735 13.76953125 0.09765625 C13.76953125 3.39765625 13.76953125 6.69765625 13.76953125 10.09765625 C13.43953125 9.10765625 13.10953125 8.11765625 12.76953125 7.09765625 C11.77953125 7.42765625 10.78953125 7.75765625 9.76953125 8.09765625 C7.08203125 7.66015625 7.08203125 7.66015625 4.76953125 7.09765625 C4.76953125 6.43765625 4.76953125 5.77765625 4.76953125 5.09765625 C7.07953125 5.09765625 9.38953125 5.09765625 11.76953125 5.09765625 C11.76953125 4.10765625 11.76953125 3.11765625 11.76953125 2.09765625 C8.13953125 2.09765625 4.50953125 2.09765625 0.76953125 2.09765625 C0.76953125 5.39765625 0.76953125 8.69765625 0.76953125 12.09765625 C0.43953125 11.43765625 0.10953125 10.77765625 -0.23046875 10.09765625 C-1.22046875 10.09765625 -2.21046875 10.09765625 -3.23046875 10.09765625 C-2.57046875 7.45765625 -1.91046875 4.81765625 -1.23046875 2.09765625 C-2.55046875 2.09765625 -3.87046875 2.09765625 -5.23046875 2.09765625 C-5.56046875 2.75765625 -5.89046875 3.41765625 -6.23046875 4.09765625 C-6.56046875 3.10765625 -6.89046875 2.11765625 -7.23046875 1.09765625 C-4.46481493 0.17577164 -2.84763173 -0.02019597 0 0 Z " fill="#C8EDF8" transform="translate(114.23046875,139.90234375)"/>
<path d="M0 0 C1.32 0 2.64 0 4 0 C4 3.63 4 7.26 4 11 C6.31 11 8.62 11 11 11 C11 12.32 11 13.64 11 15 C7.37 15 3.74 15 0 15 C0 10.05 0 5.1 0 0 Z " fill="#3F8AB4" transform="translate(60,142)"/>
<path d="M0 0 C2.31 0 4.62 0 7 0 C7 2.97 7 5.94 7 9 C4.69 9.33 2.38 9.66 0 10 C-0.33 12.31 -0.66 14.62 -1 17 C-3.97 17 -6.94 17 -10 17 C-10 14.36 -10 11.72 -10 9 C-9.01 9.495 -9.01 9.495 -8 10 C-8 11.65 -8 13.3 -8 15 C-6.68 15 -5.36 15 -4 15 C-4 13.68 -4 12.36 -4 11 C-3.34 11 -2.68 11 -2 11 C-1.67 9.68 -1.34 8.36 -1 7 C0.98 6.67 2.96 6.34 5 6 C3.63016497 2.83884224 3.0109362 2.0072908 0 0 Z " fill="#2382BA" transform="translate(48,29)"/>
<path d="M0 0 C-0.66 0 -1.32 0 -2 0 C-2 0.99 -2 1.98 -2 3 C1.3 3 4.6 3 8 3 C8 5.64 8 8.28 8 11 C10.97 11.495 10.97 11.495 14 12 C14 12.33 14 12.66 14 13 C11.69 13 9.38 13 7 13 C7 10.36 7 7.72 7 5 C3.7 5 0.4 5 -3 5 C-3 7.64 -3 10.28 -3 13 C-5.64 13 -8.28 13 -11 13 C-11 12.67 -11 12.34 -11 12 C-9.02 12 -7.04 12 -5 12 C-5 10.68 -5 9.36 -5 8 C-6.32 7.67 -7.64 7.34 -9 7 C-8.67 6.34 -8.34 5.68 -8 5 C-6 6 -6 6 -5 7 C-5.33 4.69 -5.66 2.38 -6 0 C-3.50907189 -1.24546405 -2.58919267 -0.7767578 0 0 Z " fill="#D8F5F9" transform="translate(41,15)"/>
<path d="M0 0 C0 0.99 0 1.98 0 3 C0.16666667 5.08333333 0.16666667 5.08333333 1 7 C1.66 7.309375 2.32 7.61875 3 7.9375 C3.66 8.288125 4.32 8.63875 5 9 C5.75 11.625 5.75 11.625 6 14 C2.34471125 16.3393848 -0.73523211 16.29928196 -5 16 C-7.9375 15 -7.9375 15 -10 14 C-9.01 13.67 -8.02 13.34 -7 13 C-7 11.02 -7 9.04 -7 7 C-6.34 7 -5.68 7 -5 7 C-4.566875 7.804375 -4.13375 8.60875 -3.6875 9.4375 C-2.23212941 12.24282331 -2.23212941 12.24282331 0.6875 12.8125 C1.450625 12.874375 2.21375 12.93625 3 13 C2.62746094 12.55269531 2.25492188 12.10539063 1.87109375 11.64453125 C-2.02873176 6.66083053 -2.02873176 6.66083053 -1.875 3.125 C-1 1 -1 1 0 0 Z " fill="#EDFBFD" transform="translate(48,144)"/>
<path d="M0 0 C0.66 0 1.32 0 2 0 C3.28317892 3.84953676 3.06643637 6.94738135 3 11 C-1.62 11 -6.24 11 -11 11 C-11 10.34 -11 9.68 -11 9 C-12.65 9.33 -14.3 9.66 -16 10 C-15.67 8.02 -15.34 6.04 -15 4 C-13.68 3.67 -12.36 3.34 -11 3 C-10.67 5.31 -10.34 7.62 -10 10 C-6.04 10 -2.08 10 2 10 C2 8.68 2 7.36 2 6 C-0.64 6 -3.28 6 -6 6 C-5.67 5.01 -5.34 4.02 -5 3 C-3.68 3.33 -2.36 3.66 -1 4 C-0.67 2.68 -0.34 1.36 0 0 Z " fill="#D8F7FD" transform="translate(125,147)"/>
<path d="M0 0 C1.34888732 0.00015905 2.69778075 0.00584927 4.04663086 0.01586914 C5.10991859 0.01799156 5.10991859 0.01799156 6.19468689 0.02015686 C8.46699173 0.02577096 10.73919936 0.03832576 13.01147461 0.05102539 C14.54858257 0.05603858 16.08569206 0.0606018 17.62280273 0.06469727 C21.39823103 0.07574497 25.17358632 0.09301898 28.94897461 0.11352539 C28.94897461 0.44352539 28.94897461 0.77352539 28.94897461 1.11352539 C16.57397461 1.60852539 16.57397461 1.60852539 3.94897461 2.11352539 C3.94897461 3.10352539 3.94897461 4.09352539 3.94897461 5.11352539 C3.94897461 5.44352539 3.94897461 5.77352539 3.94897461 6.11352539 C1.63897461 6.11352539 -0.67102539 6.11352539 -3.05102539 6.11352539 C-3.43321306 4.45737882 -3.76497641 2.78895515 -4.05102539 1.11352539 C-3.05102539 0.11352539 -3.05102539 0.11352539 0 0 Z " fill="#E0E0E0" transform="translate(74.051025390625,29.886474609375)"/>
<path d="M0 0 C0.67675781 -0.00386719 1.35351562 -0.00773438 2.05078125 -0.01171875 C5.14073767 -0.00562416 7.54679311 0.1405977 10.5 1.125 C10.17 2.115 9.84 3.105 9.5 4.125 C8.84 3.795 8.18 3.465 7.5 3.125 C5.50039988 3.085008 3.49952758 3.08153201 1.5 3.125 C1.17 3.785 0.84 4.445 0.5 5.125 C-4.375 4.25 -4.375 4.25 -5.5 3.125 C-6.49 3.785 -7.48 4.445 -8.5 5.125 C-10.6875 4.75 -10.6875 4.75 -12.5 4.125 C-11.84 4.125 -11.18 4.125 -10.5 4.125 C-10.5 3.135 -10.5 2.145 -10.5 1.125 C-6.94086771 -0.06137743 -3.701855 -0.02115346 0 0 Z " fill="#F7FBFD" transform="translate(22.5,135.875)"/>
<path d="M0 0 C0.33 0 0.66 0 1 0 C1.33 3.63 1.66 7.26 2 11 C5.3 11 8.6 11 12 11 C12 12.32 12 13.64 12 15 C8.04 15 4.08 15 0 15 C0 10.05 0 5.1 0 0 Z " fill="#468DB0" transform="translate(115,142)"/>
<path d="M0 0 C1.32 0 2.64 0 4 0 C4 4.95 4 9.9 4 15 C2.68 15 1.36 15 0 15 C0 10.05 0 5.1 0 0 Z " fill="#3A85B6" transform="translate(16,142)"/>
<path d="M0 0 C0.99 0 1.98 0 3 0 C3 1.32 3 2.64 3 4 C1.68 4 0.36 4 -1 4 C-1 4.66 -1 5.32 -1 6 C1.31 6 3.62 6 6 6 C6 7.32 6 8.64 6 10 C2.37 10 -1.26 10 -5 10 C-4.67 8.68 -4.34 7.36 -4 6 C-3.34 6 -2.68 6 -2 6 C-1.855625 5.195625 -1.71125 4.39125 -1.5625 3.5625 C-1 1 -1 1 0 0 Z " fill="#4793B8" transform="translate(78,147)"/>
<path d="M0 0 C0.99 0 1.98 0 3 0 C3 1.98 3 3.96 3 6 C2.01 6 1.02 6 0 6 C0.99 6.33 1.98 6.66 3 7 C3 8.32 3 9.64 3 11 C0.69 11.33 -1.62 11.66 -4 12 C-4 9.69 -4 7.38 -4 5 C-3.34 5 -2.68 5 -2 5 C-1.34 3.35 -0.68 1.7 0 0 Z " fill="#F5FBF8" transform="translate(33,16)"/>
<path d="M0 0 C1.65 0.33 3.3 0.66 5 1 C5.125 6.75 5.125 6.75 4 9 C3.34 9 2.68 9 2 9 C2.33 7.02 2.66 5.04 3 3 C-0.86107457 5.57404971 -0.94319692 7.61020259 -2 12 C-4.97 11.505 -4.97 11.505 -8 11 C-6.68 10.67 -5.36 10.34 -4 10 C-3.896875 9.0925 -3.79375 8.185 -3.6875 7.25 C-2.99585051 3.98038425 -2.17865079 2.46282263 0 0 Z " fill="#E3E3E3" transform="translate(85,100)"/>
<path d="M0 0 C0.66 0.66 1.32 1.32 2 2 C4.65537372 2.56520003 7.29144713 2.73788198 10 3 C10 3.99 10 4.98 10 6 C6.92382812 6.29296875 6.92382812 6.29296875 3.84765625 6.5859375 C3.23792969 6.72257812 2.62820312 6.85921875 2 7 C1.67 7.66 1.34 8.32 1 9 C1 8.34 1 7.68 1 7 C0.360625 6.896875 -0.27875 6.79375 -0.9375 6.6875 C-1.618125 6.460625 -2.29875 6.23375 -3 6 C-3.33 5.01 -3.66 4.02 -4 3 C-2.68 2.67 -1.36 2.34 0 2 C0 1.34 0 0.68 0 0 Z " fill="#8C8C8C" transform="translate(98,101)"/>
<path d="M0 0 C0.99386719 0.00902344 1.98773438 0.01804688 3.01171875 0.02734375 C4.15060547 0.04474609 4.15060547 0.04474609 5.3125 0.0625 C4.3225 1.5475 4.3225 1.5475 3.3125 3.0625 C2.9825 2.7325 2.6525 2.4025 2.3125 2.0625 C-0.02047433 2.02157063 -2.35455225 2.02008277 -4.6875 2.0625 C-5.0175 3.7125 -5.3475 5.3625 -5.6875 7.0625 C-2.2225 8.5475 -2.2225 8.5475 1.3125 10.0625 C1.3125 10.7225 1.3125 11.3825 1.3125 12.0625 C-0.605625 11.9078125 -0.605625 11.9078125 -2.5625 11.75 C-3.64144531 11.66298828 -3.64144531 11.66298828 -4.7421875 11.57421875 C-6.6875 11.0625 -6.6875 11.0625 -8.6875 8.0625 C-8.76655064 5.73050612 -8.77548769 3.39417378 -8.6875 1.0625 C-5.53819107 0.01273036 -3.29935544 -0.03881595 0 0 Z " fill="#B5E9F5" transform="translate(8.6875,140.9375)"/>
<path d="M0 0 C0.99 0 1.98 0 3 0 C4.3260274 5.42465753 4.3260274 5.42465753 2.9375 7.875 C0.14003001 9.49933741 -1.82365485 9.39704314 -5 9 C-6.875 7.625 -6.875 7.625 -8 6 C-8 5.34 -8 4.68 -8 4 C-0.125 4.875 -0.125 4.875 1 6 C1.33 4.68 1.66 3.36 2 2 C1.34 2 0.68 2 0 2 C0 1.34 0 0.68 0 0 Z " fill="#3986AF" transform="translate(10,148)"/>
<path d="M0 0 C0.33 0 0.66 0 1 0 C1 4.62 1 9.24 1 14 C-0.32 13.67 -1.64 13.34 -3 13 C-2.7525 11.824375 -2.7525 11.824375 -2.5 10.625 C-1.9376293 8.11791961 -1.9376293 8.11791961 -2 6 C-4.31 5.67 -6.62 5.34 -9 5 C-9 4.34 -9 3.68 -9 3 C-6.69 3.33 -4.38 3.66 -2 4 C-2 3.34 -2 2.68 -2 2 C-1.34 2 -0.68 2 0 2 C0 1.34 0 0.68 0 0 Z " fill="#9FE6F8" transform="translate(15,142)"/>
<path d="M0 0 C0.66 0 1.32 0 2 0 C2.76681614 9.73004484 2.76681614 9.73004484 0.88671875 12.84375 C-0.5 14.1875 -0.5 14.1875 -3 16 C-2.67 14.35 -2.34 12.7 -2 11 C-3.32 11.33 -4.64 11.66 -6 12 C-6.33 13.98 -6.66 15.96 -7 18 C-7.33 18 -7.66 18 -8 18 C-8.04241723 15.66705225 -8.04092937 13.33297433 -8 11 C-7 10 -7 10 -3.4375 9.9375 C-2.303125 9.958125 -1.16875 9.97875 0 10 C0 6.7 0 3.4 0 0 Z " fill="#BEEBF9" transform="translate(55,28)"/>
<path d="M0 0 C0.33 0.66 0.66 1.32 1 2 C0.67 2.66 0.34 3.32 0 4 C-0.66 4 -1.32 4 -2 4 C-1.979375 4.94875 -1.95875 5.8975 -1.9375 6.875 C-2 10 -2 10 -3 12 C-3.99 12.33 -4.98 12.66 -6 13 C-6.33 15.31 -6.66 17.62 -7 20 C-7.33 20 -7.66 20 -8 20 C-8.45825651 13.58440889 -7.54063163 9.40664019 -4 4 C-1.75 1.5 -1.75 1.5 0 0 Z " fill="#EAE9E7" transform="translate(31,17)"/>
<path d="M0 0 C2.35953094 2.35953094 2.49141413 3.77895617 3 7 C5.31 7.33 7.62 7.66 10 8 C9.01 9.485 9.01 9.485 8 11 C6.0546875 11.29296875 6.0546875 11.29296875 3.875 11.1875 C1.956875 11.0946875 1.956875 11.0946875 0 11 C0 7.37 0 3.74 0 0 Z " fill="#EAFBFC" transform="translate(0,149)"/>
<path d="M0 0 C2.0625 0.4375 2.0625 0.4375 4 1 C3.4375 2.9375 3.4375 2.9375 2 5 C-1.4375 5.875 -1.4375 5.875 -5 6 C-5.99 5.34 -6.98 4.68 -8 4 C-8 3.34 -8 2.68 -8 2 C-6.865625 1.855625 -5.73125 1.71125 -4.5625 1.5625 C-1.19222799 1.38828522 -1.19222799 1.38828522 0 0 Z " fill="#3B89AD" transform="translate(31,151)"/>
<path d="M0 0 C-0.49071618 6.37931034 -0.49071618 6.37931034 -3 9.4375 C-5 11 -5 11 -6 11 C-6.36476427 4.67741935 -6.36476427 4.67741935 -4.6875 1.5625 C-3 0 -3 0 0 0 Z " fill="#828382" transform="translate(80,113)"/>
<path d="M0 0 C1.98 0 3.96 0 6 0 C6.33 0.66 6.66 1.32 7 2 C7.99 2.66 8.98 3.32 10 4 C0.76 4 -8.48 4 -18 4 C-18 3.67 -18 3.34 -18 3 C-12.06 3 -6.12 3 0 3 C0 2.01 0 1.02 0 0 Z " fill="#D0F5FB" transform="translate(90,154)"/>
<path d="M0 0 C1.32 0 2.64 0 4 0 C4 2.64 4 5.28 4 8 C3.01 7.67 2.02 7.34 1 7 C0.01 7.99 -0.98 8.98 -2 10 C-2.33 9.01 -2.66 8.02 -3 7 C-3.99 6.67 -4.98 6.34 -6 6 C-5.34 5.67 -4.68 5.34 -4 5 C-4 4.01 -4 3.02 -4 2 C-3.01 2 -2.02 2 -1 2 C-0.67 1.34 -0.34 0.68 0 0 Z " fill="#838383" transform="translate(108,73)"/>
<path d="M0 0 C0.46148438 0.34933594 0.92296875 0.69867188 1.3984375 1.05859375 C6.86068531 4.86921327 11.38742532 5.85094606 18 6 C18 6.33 18 6.66 18 7 C15.36 7 12.72 7 10 7 C9.67 7.99 9.34 8.98 9 10 C5.6265771 8.55424733 3.38404854 6.7950914 1 4 C0.38671875 1.8671875 0.38671875 1.8671875 0 0 Z " fill="#8B8B8B" transform="translate(28,46)"/>
<path d="M0 0 C2.875 -0.125 2.875 -0.125 6 0 C6.66 0.66 7.32 1.32 8 2 C10.57061311 2.64767793 10.57061311 2.64767793 13 3 C13 3.33 13 3.66 13 4 C8.05 4.33 3.1 4.66 -2 5 C-1.34 3.35 -0.68 1.7 0 0 Z " fill="#F0FBF9" transform="translate(111,136)"/>
<path d="M0 0 C3.3 0 6.6 0 10 0 C10 2.64 10 5.28 10 8 C12.31 8 14.62 8 17 8 C13.93882432 10.62386487 13.26826873 11 9 11 C6.70986347 7.5647952 6.82157027 6.014669 7 2 C7.66 1.67 8.32 1.34 9 1 C6.03 1 3.06 1 0 1 C0 0.67 0 0.34 0 0 Z " fill="#56A8D7" transform="translate(38,20)"/>
<path d="M0 0 C0 0.99 0 1.98 0 3 C0.16666667 5.08333333 0.16666667 5.08333333 1 7 C1.66 7.309375 2.32 7.61875 3 7.9375 C3.66 8.288125 4.32 8.63875 5 9 C5.75 11.625 5.75 11.625 6 14 C5.01 14.495 5.01 14.495 4 15 C2.0170177 13.0170177 1.20621427 11.48781693 0 9 C-0.66 8.01 -1.32 7.02 -2 6 C-1.45945946 1.45945946 -1.45945946 1.45945946 0 0 Z " fill="#E6F9F9" transform="translate(48,144)"/>
<path d="M0 0 C0.66 0 1.32 0 2 0 C2 0.66 2 1.32 2 2 C4.31 2.33 6.62 2.66 9 3 C9 3.66 9 4.32 9 5 C4.56923077 7.09230769 4.56923077 7.09230769 1.6875 6.625 C1.130625 6.41875 0.57375 6.2125 0 6 C0 4.02 0 2.04 0 0 Z " fill="#D1F7F9" transform="translate(26,146)"/>
<path d="M0 0 C0.99 0.33 1.98 0.66 3 1 C3.73046875 2.84765625 3.73046875 2.84765625 4.1875 5.0625 C4.34605469 5.79597656 4.50460938 6.52945313 4.66796875 7.28515625 C4.83232422 8.13400391 4.83232422 8.13400391 5 9 C4.401875 8.79375 3.80375 8.5875 3.1875 8.375 C0.71549154 7.69328085 0.71549154 7.69328085 -2 10 C-2.80967438 7.08517222 -3.21845993 5.53886783 -2.0625 2.6875 C-1.711875 2.130625 -1.36125 1.57375 -1 1 C-1 1.99 -1 2.98 -1 4 C-0.34 4 0.32 4 1 4 C1.33 3.34 1.66 2.68 2 2 C1.34 2 0.68 2 0 2 C0 1.34 0 0.68 0 0 Z " fill="#878889" transform="translate(68,118)"/>
<path d="M0 0 C0.33 0 0.66 0 1 0 C1 4.95 1 9.9 1 15 C0.34 15 -0.32 15 -1 15 C-1 13.68 -1 12.36 -1 11 C-3.31 11 -5.62 11 -8 11 C-8 10.67 -8 10.34 -8 10 C-5.69 10 -3.38 10 -1 10 C-0.67 6.7 -0.34 3.4 0 0 Z " fill="#A3DDF0" transform="translate(72,142)"/>
<path d="M0 0 C2.01822917 0.06510417 4.03645833 0.13020833 6.0546875 0.1953125 C6.3846875 1.5153125 6.7146875 2.8353125 7.0546875 4.1953125 C3.26188768 5.45957911 1.71403398 4.59676434 -1.9453125 3.1953125 C-2.6053125 2.8653125 -3.2653125 2.5353125 -3.9453125 2.1953125 C-1.9453125 0.1953125 -1.9453125 0.1953125 0 0 Z " fill="#3985A9" transform="translate(26.9453125,141.8046875)"/>
<path d="M0 0 C0.66 0 1.32 0 2 0 C2.70226141 1.24176695 3.38629109 2.49385599 4.0625 3.75 C4.44535156 4.44609375 4.82820313 5.1421875 5.22265625 5.859375 C6.1312406 8.36140628 5.88336837 9.5332355 5 12 C1.35224614 8.11690718 0.41474367 5.28798182 0 0 Z " fill="#C9F7FB" transform="translate(98,146)"/>
<path d="M0 0 C4.21422242 2.88341534 5.76075855 5.04303419 7 10 C5.33333333 10 3.66666667 10 2 10 C2.061875 9.236875 2.12375 8.47375 2.1875 7.6875 C2.25898085 4.95474688 2.25898085 4.95474688 0.5 3.1875 C0.005 2.795625 -0.49 2.40375 -1 2 C-0.67 1.34 -0.34 0.68 0 0 Z " fill="#EDEEE9" transform="translate(54,18)"/>
<path d="M0 0 C1.32 0 2.64 0 4 0 C3.67 0.99 3.34 1.98 3 3 C2.34 3 1.68 3 1 3 C1 5.97 1 8.94 1 12 C1.99 12.33 2.98 12.66 4 13 C4 13.66 4 14.32 4 15 C2.68 15 1.36 15 0 15 C0 10.05 0 5.1 0 0 Z " fill="#3C82A2" transform="translate(37,142)"/>
<path d="M0 0 C1.65 0 3.3 0 5 0 C4.01 1.485 4.01 1.485 3 3 C2.75892674 5.28648848 2.75892674 5.28648848 2.875 7.6875 C2.89304687 8.49574219 2.91109375 9.30398437 2.9296875 10.13671875 C2.95289063 10.75160156 2.97609375 11.36648437 3 12 C2.01 12 1.02 12 0 12 C0 8.04 0 4.08 0 0 Z " fill="#B9F6FC" transform="translate(20,142)"/>
<path d="M0 0 C0.33 0 0.66 0 1 0 C1 3.3 1 6.6 1 10 C0.67 9.01 0.34 8.02 0 7 C-0.99 7.33 -1.98 7.66 -3 8 C-5.6875 7.5625 -5.6875 7.5625 -8 7 C-8 6.34 -8 5.68 -8 5 C-5.69 5 -3.38 5 -1 5 C-0.67 3.35 -0.34 1.7 0 0 Z " fill="#BEE6F3" transform="translate(127,140)"/>
<path d="M0 0 C1.32 0 2.64 0 4 0 C3.71758359 1.46015291 3.42373386 2.91809793 3.125 4.375 C2.96257812 5.18710938 2.80015625 5.99921875 2.6328125 6.8359375 C2 9 2 9 0 11 C0.33 9.35 0.66 7.7 1 6 C0.01 5.67 -0.98 5.34 -2 5 C-1.34 3.35 -0.68 1.7 0 0 Z " fill="#3B86B2" transform="translate(109,142)"/>
<path d="M0 0 C2.0625 0.4375 2.0625 0.4375 4 1 C3.34 1.66 2.68 2.32 2 3 C1.690625 3.845625 1.38125 4.69125 1.0625 5.5625 C0.711875 6.366875 0.36125 7.17125 0 8 C-2.99531539 8.99843846 -4.17255732 9.00732761 -7.1875 8.5625 C-8.445625 8.376875 -9.70375 8.19125 -11 8 C-11 7.67 -11 7.34 -11 7 C-7.7 7 -4.4 7 -1 7 C-1.020625 6.030625 -1.04125 5.06125 -1.0625 4.0625 C-1 1 -1 1 0 0 Z " fill="#DBFAFB" transform="translate(49,39)"/>
<path d="M0 0 C0.99 0.33 1.98 0.66 3 1 C3 1.99 3 2.98 3 4 C2.34 4 1.68 4 1 4 C0.896875 4.598125 0.79375 5.19625 0.6875 5.8125 C-0.08876455 8.28243264 -1.07088921 9.32251235 -3 11 C-3.75 9.4375 -3.75 9.4375 -4 7 C-2.86915563 4.49713591 -1.47860484 2.32992278 0 0 Z " fill="#7E8288" transform="translate(61,38)"/>
<path d="M0 0 C1.98 0 3.96 0 6 0 C5.67 0.66 5.34 1.32 5 2 C4.01 2 3.02 2 2 2 C2 2.66 2 3.32 2 4 C2.66 4.33 3.32 4.66 4 5 C3.34 6.65 2.68 8.3 2 10 C1.34 10 0.68 10 0 10 C0 6.7 0 3.4 0 0 Z " fill="#1B89C5" transform="translate(74,143)"/>
<path d="M0 0 C3.3 0 6.6 0 10 0 C10 0.99 10 1.98 10 3 C7.98177083 2.96744792 5.96354167 2.93489583 3.9453125 2.90234375 C1.91814596 2.87350758 1.91814596 2.87350758 0 4 C0 2.68 0 1.36 0 0 Z " fill="#297CB0" transform="translate(116,142)"/>
<path d="M0 0 C1.74627478 2.61941217 2.38722388 4.03824877 3 7 C1.35 6.67 -0.3 6.34 -2 6 C-2 5.34 -2 4.68 -2 4 C-3.65 4 -5.3 4 -7 4 C-7 3.67 -7 3.34 -7 3 C-5.35 3 -3.7 3 -2 3 C-2 2.34 -2 1.68 -2 1 C-1.34 0.67 -0.68 0.34 0 0 Z " fill="#4D8FC1" transform="translate(98,150)"/>
<path d="M0 0 C1.67542976 0.28604898 3.34385343 0.61781233 5 1 C4.34 3.31 3.68 5.62 3 8 C2.34 8 1.68 8 1 8 C0.34 5.69 -0.32 3.38 -1 1 C-0.67 0.67 -0.34 0.34 0 0 Z " fill="#3F97C6" transform="translate(91,142)"/>
<path d="M0 0 C2.64 0 5.28 0 8 0 C8 2.64 8 5.28 8 8 C7.34 8 6.68 8 6 8 C5.67 6.35 5.34 4.7 5 3 C3.35 2.67 1.7 2.34 0 2 C0 1.34 0 0.68 0 0 Z " fill="#BCECFA" transform="translate(30,38)"/>
<path d="M0 0 C0.66 0.99 1.32 1.98 2 3 C1.67 3.66 1.34 4.32 1 5 C1.66 5.33 2.32 5.66 3 6 C2.01 6 1.02 6 0 6 C0 5.34 0 4.68 0 4 C-0.66 4 -1.32 4 -2 4 C-2.33 5.32 -2.66 6.64 -3 8 C-3.33 6.35 -3.66 4.7 -4 3 C-2.68 2.01 -1.36 1.02 0 0 Z M3 0 C3.33 0 3.66 0 4 0 C4 1.65 4 3.3 4 5 C3.67 5 3.34 5 3 5 C3 3.35 3 1.7 3 0 Z " fill="#818181" transform="translate(108,82)"/>
<path d="M0 0 C1.65 0 3.3 0 5 0 C5.66 2.97 6.32 5.94 7 9 C6.34 9 5.68 9 5 9 C4.01 7.02 3.02 5.04 2 3 C1.34 3.66 0.68 4.32 0 5 C0 3.35 0 1.7 0 0 Z " fill="#0D89D9" transform="translate(40,22)"/>
<path d="M0 0 C0.66 0.33 1.32 0.66 2 1 C2 4.3 2 7.6 2 11 C1.34 11 0.68 11 0 11 C-0.19491452 9.54263913 -0.38069358 8.08405407 -0.5625 6.625 C-0.66691406 5.81289063 -0.77132813 5.00078125 -0.87890625 4.1640625 C-1 2 -1 2 0 0 Z " fill="#D6F0FA" transform="translate(28,27)"/>
<path d="M0 0 C1.37562854 1.28965176 2.70766393 2.62689293 4 4 C4 4.66 4 5.32 4 6 C1.6875 6.3125 1.6875 6.3125 -1 6 C-2.8125 3.5 -2.8125 3.5 -4 1 C-2.68 1.33 -1.36 1.66 0 2 C0 1.34 0 0.68 0 0 Z " fill="#528EAC" transform="translate(47,151)"/>
<path d="M0 0 C0.66 0 1.32 0 2 0 C2 3.3 2 6.6 2 10 C1.67 9.34 1.34 8.68 1 8 C0.01 8 -0.98 8 -2 8 C-1.34 5.36 -0.68 2.72 0 0 Z " fill="#B6F3FA" transform="translate(113,142)"/>
<path d="M0 0 C2.31 0 4.62 0 7 0 C7.66 1.32 8.32 2.64 9 4 C6.03 3.505 6.03 3.505 3 3 C3 2.34 3 1.68 3 1 C2.34 1 1.68 1 1 1 C1 1.66 1 2.32 1 3 C0.34 3 -0.32 3 -1 3 C-0.67 2.01 -0.34 1.02 0 0 Z " fill="#2E7CAD" transform="translate(4,142)"/>
<path d="M0 0 C0.66 0.33 1.32 0.66 2 1 C1.690625 1.680625 1.38125 2.36125 1.0625 3.0625 C-0.13370649 6.36965912 -0.59005397 9.51545878 -1 13 C-1.33 13 -1.66 13 -2 13 C-2 11.35 -2 9.7 -2 8 C-2.66 7.67 -3.32 7.34 -4 7 C-2.68 4.69 -1.36 2.38 0 0 Z " fill="#DEDEDE" transform="translate(75,111)"/>
<path d="M0 0 C0.33 0.99 0.66 1.98 1 3 C1.99 2.67 2.98 2.34 4 2 C4 2.66 4 3.32 4 4 C4.66 4 5.32 4 6 4 C5.34 5.98 4.68 7.96 4 10 C3.34 10 2.68 10 2 10 C2 8.02 2 6.04 2 4 C1.34 4 0.68 4 0 4 C0 2.68 0 1.36 0 0 Z " fill="#898989" transform="translate(104,46)"/>
<path d="M0 0 C1.67542976 0.28604898 3.34385343 0.61781233 5 1 C5 1.99 5 2.98 5 4 C3.35 4.33 1.7 4.66 0 5 C-0.5625 3.0625 -0.5625 3.0625 -1 1 C-0.67 0.67 -0.34 0.34 0 0 Z " fill="#EFEFEF" transform="translate(24,89)"/>
<path d="M0 0 C2.1385485 2.1385485 2.42655063 3.13275314 3 6 C2.01 6.495 2.01 6.495 1 7 C1 6.34 1 5.68 1 5 C-1.64 5 -4.28 5 -7 5 C-4.702779 3.25728062 -2.40133271 1.60088848 0 0 Z " fill="#8A8A8A" transform="translate(55,47)"/>
<path d="M0 0 C1.32 0 2.64 0 4 0 C4.33 1.98 4.66 3.96 5 6 C3.68 6 2.36 6 1 6 C0.67 4.02 0.34 2.04 0 0 Z " fill="#3C7FB0" transform="translate(100,142)"/>
<path d="M0 0 C0.99 0.33 1.98 0.66 3 1 C2.01 2.98 1.02 4.96 0 7 C1.65 7.33 3.3 7.66 5 8 C2.3333581 9.33332095 0.83319697 8.67102033 -2 8 C-2.20086443 4.28400809 -2.1519437 3.22791555 0 0 Z " fill="#1884C6" transform="translate(33,29)"/>
<path d="M0 0 C0.99 0.33 1.98 0.66 3 1 C3 3.31 3 5.62 3 8 C2.01 8 1.02 8 0 8 C0 5.36 0 2.72 0 0 Z " fill="#298BC2" transform="translate(61,145)"/>
<path d="M0 0 C1.98 0 3.96 0 6 0 C6 0.66 6 1.32 6 2 C1.61538462 5 1.61538462 5 -1 5 C-0.67 3.35 -0.34 1.7 0 0 Z " fill="#E9EAEA" transform="translate(24,118)"/>
<path d="M0 0 C0.99 0 1.98 0 3 0 C2.34 1.98 1.68 3.96 1 6 C0.01 6 -0.98 6 -2 6 C-2.33 5.01 -2.66 4.02 -3 3 C-2.01 2.67 -1.02 2.34 0 2 C0 1.34 0 0.68 0 0 Z " fill="#1A86C9" transform="translate(107,148)"/>
<path d="M0 0 C0 0.99 0 1.98 0 3 C-2.64 3 -5.28 3 -8 3 C-8 2.34 -8 1.68 -8 1 C-5.29120665 -0.35439668 -2.99066732 -0.06501451 0 0 Z " fill="#E5E5E5" transform="translate(108,104)"/>
<path d="M0 0 C1.79640787 3.36826475 2 5.18260321 2 9 C2.66 9.33 3.32 9.66 4 10 C0.125 9.125 0.125 9.125 -1 8 C-0.82364548 5.30917128 -0.38164079 2.67148554 0 0 Z " fill="#8D8D8D" transform="translate(84,105)"/>
<path d="M0 0 C1.80411967 2.75924185 2.0127245 3.88972103 1.625 7.25 C1.41875 8.1575 1.2125 9.065 1 10 C-0.9451 7.08235 -1.45276317 5.37462715 -2 2 C-1.34 2 -0.68 2 0 2 C0 1.34 0 0.68 0 0 Z " fill="#F1F1F1" transform="translate(116,22)"/>
<path d="M0 0 C2 3.875 2 3.875 2 5 C0.35 5 -1.3 5 -3 5 C-3 5.66 -3 6.32 -3 7 C-3.66 7 -4.32 7 -5 7 C-4.60196439 4.11424181 -4.20990931 3.17810487 -1.9375 1.25 C-1.298125 0.8375 -0.65875 0.425 0 0 Z " fill="#E2F2FA" transform="translate(18,137)"/>
<path d="M0 0 C-0.99 1.485 -0.99 1.485 -2 3 C-4.625 3.1875 -4.625 3.1875 -7 3 C-7 2.01 -7 1.02 -7 0 C-4.3333581 -1.33332095 -2.83319697 -0.67102033 0 0 Z " fill="#F9FCF4" transform="translate(46,15)"/>
<path d="M0 0 C0.66 0 1.32 0 2 0 C2.99 1.98 3.98 3.96 5 6 C3.35 6 1.7 6 0 6 C0 4.02 0 2.04 0 0 Z " fill="#BEF2FC" transform="translate(41,151)"/>
<path d="M0 0 C1.98 0 3.96 0 6 0 C6 0.99 6 1.98 6 3 C3.69 3 1.38 3 -1 3 C-0.67 2.01 -0.34 1.02 0 0 Z " fill="#3782A1" transform="translate(78,153)"/>
<path d="M0 0 C1.32 0 2.64 0 4 0 C4.125 5.75 4.125 5.75 3 8 C2.34 8 1.68 8 1 8 C1.33 5.69 1.66 3.38 2 1 C1.34 0.67 0.68 0.34 0 0 Z " fill="#EFEFEF" transform="translate(86,101)"/>
<path d="M0 0 C0.99 0 1.98 0 3 0 C2.34 2.64 1.68 5.28 1 8 C2.65 8 4.3 8 6 8 C6 8.33 6 8.66 6 9 C4.02 9 2.04 9 0 9 C0 6.03 0 3.06 0 0 Z " fill="#2E7CAB" transform="translate(30,29)"/>
<path d="M0 0 C2.37783838 2.37783838 2.59009208 3.72073665 3 7 C2.67 7.66 2.34 8.32 2 9 C1.34 9 0.68 9 0 9 C0 6.03 0 3.06 0 0 Z " fill="#E1EFF1" transform="translate(0,149)"/>
<path d="M0 0 C0.66 0 1.32 0 2 0 C2.33 1.98 2.66 3.96 3 6 C1.68 5.67 0.36 5.34 -1 5 C-0.67 3.35 -0.34 1.7 0 0 Z " fill="#2787C4" transform="translate(95,145)"/>
<path d="M0 0 C1.32 0 2.64 0 4 0 C3.67 1.32 3.34 2.64 3 4 C2.34 3.67 1.68 3.34 1 3 C1 4.65 1 6.3 1 8 C0.67 8 0.34 8 0 8 C0 5.36 0 2.72 0 0 Z " fill="#3C80A5" transform="translate(60,142)"/>
<path d="M0 0 C1.2065625 0.0309375 1.2065625 0.0309375 2.4375 0.0625 C2.7675 0.7225 3.0975 1.3825 3.4375 2.0625 C3.1075 3.0525 2.7775 4.0425 2.4375 5.0625 C1.7775 5.0625 1.1175 5.0625 0.4375 5.0625 C0.4375 4.0725 0.4375 3.0825 0.4375 2.0625 C-0.8825 1.7325 -2.2025 1.4025 -3.5625 1.0625 C-2.5625 0.0625 -2.5625 0.0625 0 0 Z " fill="#F8F8F9" transform="translate(79.5625,110.9375)"/>
<path d="M0 0 C0.33 0.66 0.66 1.32 1 2 C1.99 2 2.98 2 4 2 C4 2.66 4 3.32 4 4 C4.66 4.33 5.32 4.66 6 5 C3.69 5.33 1.38 5.66 -1 6 C-0.67 4.02 -0.34 2.04 0 0 Z " fill="#757575" transform="translate(24,83)"/>
<path d="M0 0 C0 0.99 0 1.98 0 3 C0.63106429 5.01151741 1.29373761 7.01363702 2 9 C1.34 9 0.68 9 0 9 C-2 6 -2 6 -1.6875 3.375 C-1 1 -1 1 0 0 Z " fill="#BCEAF4" transform="translate(48,144)"/>
<path d="M0 0 C1.485 0.99 1.485 0.99 3 2 C3 2.99 3 3.98 3 5 C3.99 5 4.98 5 6 5 C6 5.66 6 6.32 6 7 C3.5625 6.3125 3.5625 6.3125 1 5 C0.1875 2.375 0.1875 2.375 0 0 Z " fill="#3A88BC" transform="translate(2,144)"/>
<path d="M0 0 C1.65 0 3.3 0 5 0 C3.68 2.31 2.36 4.62 1 7 C0.31292445 4.50935112 0 2.62113708 0 0 Z " fill="#3F89AE" transform="translate(45,142)"/>
</svg>
