<svg width="15" height="16" viewBox="0 0 15 16" fill="none" xmlns="http://www.w3.org/2000/svg">
<rect x="13" y="6" width="2" height="2" fill="#F9952B"/>
<rect x="13" width="2" height="5" fill="#F9952B"/>
<path fill-rule="evenodd" clip-rule="evenodd" d="M5.35198 16H0.8C0.587827 16 0.384344 15.9157 0.234315 15.7657C0.0842854 15.6157 0 15.4122 0 15.2V13.6C0.00171502 12.1153 0.592264 10.6919 1.6421 9.64211C2.69193 8.59228 4.11531 8.00173 5.6 8.00002H5.65329C5.66219 7.99999 5.67108 7.99999 5.67998 8.00002H8.8C8.8089 7.99999 8.81779 7.99999 8.82669 8.00002H8.87998C10.3647 8.00173 11.7881 8.59228 12.8379 9.64211C13.8877 10.6919 14.4783 12.1153 14.48 13.6V15.2C14.48 15.4122 14.3957 15.6157 14.2457 15.7657C14.0956 15.9157 13.8922 16 13.68 16H9.128H5.35198ZM5.35198 14.4H9.128H12.88V13.6C12.8787 12.5395 12.4569 11.5228 11.707 10.773C11.6178 10.6838 11.5249 10.5992 11.4285 10.5194C11.3471 10.4925 11.2699 10.4524 11.2 10.4C10.5138 9.88275 9.67853 9.60213 8.81959 9.60002H8.8H5.67998H5.66039C4.80145 9.60213 3.96614 9.88275 3.27998 10.4C3.21012 10.4524 3.13287 10.4925 3.05151 10.5194C2.95513 10.5992 2.86215 10.6838 2.77295 10.773C2.02308 11.5228 1.60125 12.5395 1.6 13.6V14.4H5.35198Z" fill="#F9952B"/>
<path d="M10.8001 3.6C10.8001 2.88799 10.589 2.19197 10.1934 1.59995C9.79782 1.00793 9.23557 0.546511 8.57776 0.274035C7.91994 0.00155981 7.1961 -0.0697322 6.49777 0.0691746C5.79944 0.208081 5.15798 0.550948 4.65451 1.05442C4.15105 1.55789 3.80818 2.19934 3.66927 2.89768C3.53037 3.59601 3.60166 4.31985 3.87413 4.97766C4.14661 5.63548 4.60803 6.19772 5.20005 6.59329C5.79206 6.98886 6.48809 7.2 7.2001 7.2C8.15455 7.19894 9.06961 6.81932 9.74451 6.14442C10.4194 5.46951 10.799 4.55446 10.8001 3.6ZM5.2001 3.6C5.2001 3.20444 5.3174 2.81776 5.53716 2.48886C5.75692 2.15996 6.06928 1.90362 6.43473 1.75224C6.80018 1.60087 7.20232 1.56126 7.59028 1.63843C7.97824 1.7156 8.33461 1.90608 8.61431 2.18579C8.89402 2.46549 9.0845 2.82186 9.16167 3.20982C9.23884 3.59778 9.19923 3.99992 9.04786 4.36537C8.89648 4.73082 8.64014 5.04318 8.31124 5.26294C7.98234 5.4827 7.59566 5.6 7.2001 5.6C6.66983 5.59945 6.16145 5.38856 5.78649 5.01361C5.41154 4.63865 5.20065 4.13026 5.2001 3.6Z" fill="#F9952B"/>
</svg>
