<?xml version="1.0" encoding="utf-8"?>
<!-- Generator: Adobe Illustrator 24.0.0, SVG Export Plug-In . SVG Version: 6.00 Build 0)  -->
<svg version="1.1" xmlns="http://www.w3.org/2000/svg" xmlns:xlink="http://www.w3.org/1999/xlink" x="0px" y="0px"
	 viewBox="0 0 256 256" enable-background="new 0 0 256 256" xml:space="preserve">
<g id="Layer_2">
</g>
<g id="Layer_1">
	<g>
	</g>
	<g>
		<path fill="#EFEFEF" d="M23.333,136.451V239.5c0,5.523,4.477,10,10,10h189.333c5.523,0,10-4.477,10-10V136.451H23.333z"/>
		<path fill="#FC5D3D" d="M232.67,112.12v24.335H23.33V112.12c0-5.52,4.48-10,10-10h24.8v4.71c0,3.51,2.85,6.35,6.35,6.35h14.04
			c3.5,0,6.35-2.84,6.35-6.35v-4.71h16.82c5.86,8.19,15.46,13.54,26.31,13.54s20.45-5.35,26.31-13.54h16.82v4.71
			c0,3.51,2.85,6.35,6.35,6.35h14.04c3.5,0,6.35-2.84,6.35-6.35v-4.71h24.8C228.19,102.12,232.67,106.6,232.67,112.12z"/>
		<path fill="#FFB69F" d="M197.87,97.41v9.42c0,3.51-2.85,6.35-6.35,6.35h-14.04c-3.5,0-6.35-2.84-6.35-6.35v-9.42
			c0-3.51,2.85-6.35,6.35-6.35h14.04C195.02,91.06,197.87,93.9,197.87,97.41z"/>
		<path fill="#FFB69F" d="M84.87,97.41v9.42c0,3.51-2.85,6.35-6.35,6.35H64.48c-3.5,0-6.35-2.84-6.35-6.35v-9.42
			c0-3.51,2.85-6.35,6.35-6.35h14.04C82.02,91.06,84.87,93.9,84.87,97.41z"/>
		<path fill="#FFB69F" d="M160.31,59.21v24.14c0,7-2.22,13.47-6,18.77c-5.86,8.19-15.46,13.54-26.31,13.54s-20.45-5.35-26.31-13.54
			c-3.78-5.3-6-11.77-6-18.77V59.21H160.31z"/>
		<path fill="#72C2E9" d="M168.21,51.63c0,4.18-3.391,7.58-7.57,7.58H95.36c-4.18,0-7.57-3.39-7.57-7.58
			c0-12.33,9.993-22.33,22.33-22.33h35.76C158.21,29.3,168.21,39.3,168.21,51.63z"/>
		<polygon fill="#72C2E9" points="139.67,7 136.92,20.5 119.08,20.5 116.33,7 		"/>
		<path fill="#7D7B79" d="M143.6,24.9L143.6,24.9c0,2.43-1.97,4.4-4.4,4.4h-22.4c-2.43,0-4.4-1.97-4.4-4.4v0
			c0-2.43,1.97-4.4,4.4-4.4h22.4C141.63,20.5,143.6,22.47,143.6,24.9z"/>
		<polygon fill="#FC5D3D" points="164.5,178.283 142.693,178.283 142.693,156.476 113.307,156.476 113.307,178.283 91.5,178.283 
			91.5,207.669 113.307,207.669 113.307,229.476 142.693,229.476 142.693,207.669 164.5,207.669 		"/>
		<g>
			<g>
				<path fill="#FFFFFF" d="M222.666,242H47.833c-1.381,0-2.5-1.119-2.5-2.5s1.119-2.5,2.5-2.5h172.333v-92.667
					c0-1.381,1.119-2.5,2.5-2.5s2.5,1.119,2.5,2.5V239.5C225.166,240.881,224.047,242,222.666,242z M37.833,242h-4.499
					c-1.381,0-2.5-1.119-2.5-2.5s1.119-2.5,2.5-2.5h4.499c1.381,0,2.5,1.119,2.5,2.5S39.214,242,37.833,242z"/>
			</g>
			<g>
				<path fill="#FFCBC3" d="M222.666,130.703H51.751c-1.381,0-2.5-1.119-2.5-2.5s1.119-2.5,2.5-2.5h168.415v-13.585
					c0-1.381,1.119-2.5,2.5-2.5s2.5,1.119,2.5,2.5v16.085C225.166,129.584,224.047,130.703,222.666,130.703z M41.751,130.703h-8.417
					c-1.381,0-2.5-1.119-2.5-2.5s1.119-2.5,2.5-2.5h8.417c1.381,0,2.5,1.119,2.5,2.5S43.132,130.703,41.751,130.703z"/>
			</g>
			<circle cx="174.569" cy="249.5" r="2.5"/>
			<path d="M222.67,247h-38.101c-1.38,0-2.5,1.12-2.5,2.5s1.12,2.5,2.5,2.5h0.011h38.09c6.89,0,12.49-5.61,12.5-12.5
				c0-21.064,0-110.667,0-127.38c0-6.893-5.607-12.5-12.5-12.5h-8.846v-9.336c0-1.381-1.119-2.5-2.5-2.5s-2.5,1.119-2.5,2.5v9.336
				h-8.457v-2.214c0-4.88-3.97-8.851-8.85-8.851h-14.035c-4.88,0-8.85,3.971-8.85,8.851v2.214h-9.848
				c1.152-2.179,2.071-4.468,2.735-6.841c0.372-1.337-0.404-2.715-1.729-3.09c-1.311-0.359-2.721,0.44-3.08,1.74
				c-3.654,13.011-15.585,21.73-28.71,21.73c-16.363,0-29.811-13.217-29.811-29.811V61.71h59.62v10.5c0,1.38,1.12,2.5,2.5,2.5
				s2.5-1.12,2.5-2.5V61.464c4.51-1.003,7.9-5.03,7.9-9.834c0-13.454-10.817-24.83-24.883-24.83
				c1.199-4.176-1.697-8.289-5.857-8.754l2.148-10.547c0.317-1.548-0.869-2.999-2.449-2.999h-23.34c-1.58,0-2.766,1.451-2.449,2.999
				l2.148,10.547c-4.159,0.465-7.055,4.578-5.857,8.754c-4.325,0-8.411,1.088-11.972,3.04c-1.232,0.68-1.645,2.204-0.99,3.39
				c0.64,1.17,2.22,1.641,3.399,1c2.931-1.609,6.131-2.43,9.511-2.43h4.926c-2.037,3.583-3.286,8.82-3.286,14.867
				c0,1.381,1.119,2.5,2.5,2.5s2.5-1.119,2.5-2.5c0-9.619,3.39-14.867,5.131-14.867h12.219c1.741,0,5.131,5.248,5.131,14.867
				c0,1.381,1.119,2.5,2.5,2.5s2.5-1.119,2.5-2.5c0-6.047-1.25-11.284-3.286-14.867h4.926c10.91,0.02,19.81,8.92,19.83,19.83
				c-0.009,2.565-1.954,5.08-5.4,5.08h-64.62c-3.454,0-5.399-2.528-5.399-5.08c0-1.16,0.1-2.33,0.3-3.46
				c0.24-1.36-0.67-2.66-2.03-2.9c-1.35-0.229-2.66,0.69-2.89,2.03c-0.25,1.42-0.38,2.88-0.38,4.33c0,4.813,3.389,8.841,7.899,9.838
				V83.35c0,5.739,1.399,11.279,4.044,16.271h-9.866v-2.214c0-4.88-3.97-8.851-8.85-8.851H64.482c-4.88,0-8.85,3.971-8.85,8.851
				v2.214h-8.466v-9.336c0-1.381-1.119-2.5-2.5-2.5s-2.5,1.119-2.5,2.5v9.336H33.33c-6.893,0-12.5,5.607-12.5,12.5
				c0,14.302,0,110.926,0,127.38c0.01,6.89,5.609,12.5,12.5,12.5h131.239c1.381,0,2.5-1.12,2.5-2.5s-1.119-2.5-2.5-2.5H33.33
				c-4.13-0.01-7.49-3.37-7.5-7.5V138.955h204.34V239.5C230.16,243.63,226.8,246.99,222.67,247z M136.609,9.5l-1.731,8.5h-13.756
				l-1.731-8.5H136.609z M116.8,26.8c-1.047,0-1.899-0.853-1.899-1.9c0-1.047,0.853-1.899,1.899-1.899c7.458,0,14.924,0,22.4,0
				c1.047,0,1.899,0.853,1.899,1.899V24.9c0,1.047-0.853,1.899-1.899,1.899C129.501,26.8,126.802,26.8,116.8,26.8z M173.633,97.406
				c0-2.123,1.727-3.851,3.85-3.851h14.035c2.123,0,3.85,1.728,3.85,3.851v9.424c0,2.123-1.727,3.851-3.85,3.851h-14.035
				c-2.123,0-3.85-1.728-3.85-3.851V97.406z M60.633,97.406c0-2.123,1.727-3.851,3.85-3.851h14.035c2.123,0,3.85,1.728,3.85,3.851
				v9.424c0,2.123-1.727,3.851-3.85,3.851H64.482c-2.123,0-3.85-1.728-3.85-3.851V97.406z M33.33,104.62h8.837v9.33
				c0,1.381,1.119,2.5,2.5,2.5s2.5-1.119,2.5-2.5v-9.33h8.466v2.21c0,4.88,3.97,8.851,8.85,8.851h14.035
				c4.88,0,8.85-3.971,8.85-8.851v-2.21h13.083c6.67,8.598,16.785,13.54,27.55,13.54c10.471,0,20.72-4.724,27.557-13.54h13.076v2.21
				c0,4.88,3.97,8.851,8.85,8.851h14.035c4.88,0,8.85-3.971,8.85-8.851v-2.21h8.457v9.33c0,1.381,1.119,2.5,2.5,2.5
				s2.5-1.119,2.5-2.5v-9.33h8.846c4.136,0,7.5,3.364,7.5,7.5v21.83H25.83v-21.83C25.83,107.984,29.194,104.62,33.33,104.62z"/>
			<path d="M117.239,100.588c1.381,0,2.5-1.119,2.5-2.5c0-4.555,3.706-8.261,8.261-8.261s8.261,3.706,8.261,8.261
				c0,1.381,1.119,2.5,2.5,2.5s2.5-1.119,2.5-2.5c0-7.312-5.949-13.261-13.261-13.261s-13.261,5.949-13.261,13.261
				C114.739,99.469,115.858,100.588,117.239,100.588z"/>
			<path d="M109.214,69.488c-1.381,0-2.5,1.119-2.5,2.5v4.094c0,3.636,2.958,6.594,6.594,6.594s6.594-2.958,6.594-6.594v-4.094
				c0-1.381-1.119-2.5-2.5-2.5s-2.5,1.119-2.5,2.5v4.094c0,0.879-0.715,1.594-1.594,1.594s-1.594-0.715-1.594-1.594v-4.094
				C111.714,70.607,110.595,69.488,109.214,69.488z"/>
			<path d="M149.286,76.082v-4.094c0-1.381-1.119-2.5-2.5-2.5s-2.5,1.119-2.5,2.5v4.094c0,0.879-0.715,1.594-1.594,1.594
				s-1.594-0.715-1.594-1.594v-4.094c0-1.381-1.119-2.5-2.5-2.5s-2.5,1.119-2.5,2.5v4.094c0,3.636,2.958,6.594,6.594,6.594
				S149.286,79.718,149.286,76.082z"/>
			<path d="M93.439,36.569c-1.08-0.77-2.71-0.51-3.489,0.57c0,0.01,0,0.01-0.011,0.01c-0.783,1.113-0.55,2.665,0.58,3.48
				c1.132,0.813,2.69,0.537,3.49-0.57C94.841,38.907,94.534,37.361,93.439,36.569z"/>
			<circle cx="160.31" cy="82.21" r="2.5"/>
			<path d="M113.307,231.976h29.387c1.381,0,2.5-1.119,2.5-2.5v-19.307H164.5c1.381,0,2.5-1.119,2.5-2.5v-29.386
				c0-1.381-1.119-2.5-2.5-2.5h-19.307v-19.308c0-1.381-1.119-2.5-2.5-2.5h-29.387c-1.381,0-2.5,1.119-2.5,2.5v19.308H91.5
				c-1.381,0-2.5,1.119-2.5,2.5v29.386c0,1.381,1.119,2.5,2.5,2.5h19.307v19.307C110.807,230.856,111.926,231.976,113.307,231.976z
				 M94,205.169v-24.386h19.307c1.381,0,2.5-1.119,2.5-2.5v-19.308h24.387v19.308c0,1.381,1.119,2.5,2.5,2.5H162v24.386h-19.307
				c-1.381,0-2.5,1.119-2.5,2.5v19.307h-24.387v-19.307c0-1.381-1.119-2.5-2.5-2.5H94z"/>
		</g>
	</g>
</g>
</svg>
