<svg width="16" height="16" viewBox="0 0 16 16" fill="none" xmlns="http://www.w3.org/2000/svg">
<path d="M8 16C12.4183 16 16 12.4183 16 8C16 3.58172 12.4183 0 8 0C3.58172 0 0 3.58172 0 8C0 12.4183 3.58172 16 8 16Z" fill="#5277F7"/>
<path d="M7.99996 12.8064C7.03761 12.8065 6.09918 12.5065 5.31535 11.9482C4.53152 11.3899 3.94132 10.601 3.62694 9.69143C3.6003 9.62271 3.58778 9.54933 3.59012 9.47567C3.59247 9.40201 3.60963 9.32957 3.64059 9.26269C3.67155 9.19581 3.71567 9.13585 3.77032 9.0864C3.82496 9.03695 3.88901 8.99901 3.95864 8.97486C4.02827 8.95071 4.10205 8.94083 4.17558 8.94583C4.24912 8.95082 4.32089 8.97058 4.38661 9.00392C4.45234 9.03727 4.51067 9.08352 4.55813 9.1399C4.60558 9.19629 4.64119 9.26166 4.66282 9.33212C4.90148 10.0275 5.35139 10.6309 5.94969 11.0581C6.54799 11.4853 7.2648 11.715 7.99996 11.715C8.73513 11.715 9.45194 11.4853 10.0502 11.0581C10.6485 10.6309 11.0984 10.0275 11.3371 9.33212C11.3587 9.26166 11.3943 9.19629 11.4418 9.1399C11.4893 9.08352 11.5476 9.03727 11.6133 9.00392C11.679 8.97058 11.7508 8.95082 11.8243 8.94583C11.8979 8.94083 11.9717 8.95071 12.0413 8.97486C12.1109 8.99901 12.175 9.03695 12.2296 9.0864C12.2843 9.13585 12.3284 9.19581 12.3593 9.26269C12.3903 9.32957 12.4075 9.40201 12.4098 9.47567C12.4122 9.54933 12.3996 9.62271 12.373 9.69143C12.0586 10.601 11.4684 11.3899 10.6846 11.9482C9.90075 12.5065 8.96232 12.8065 7.99996 12.8064Z" fill="white"/>
<path d="M10.6515 7.10124C11.2322 7.10124 11.703 6.6305 11.703 6.04981C11.703 5.46912 11.2322 4.99838 10.6515 4.99838C10.0708 4.99838 9.6001 5.46912 9.6001 6.04981C9.6001 6.6305 10.0708 7.10124 10.6515 7.10124Z" fill="white"/>
<path d="M5.34855 7.10124C5.92924 7.10124 6.39998 6.6305 6.39998 6.04981C6.39998 5.46912 5.92924 4.99838 5.34855 4.99838C4.76786 4.99838 4.29712 5.46912 4.29712 6.04981C4.29712 6.6305 4.76786 7.10124 5.34855 7.10124Z" fill="white"/>
</svg>
