<svg width="60" height="58" viewBox="0 0 60 58" fill="none" xmlns="http://www.w3.org/2000/svg">
<path d="M21.9999 10H41.6999L45.3899 4.28998C46.2999 2.88001 47.8199 2.03998 49.4699 2.01001C48.3799 0.77997 46.7799 0 44.9999 0H14.9999C11.6899 0 8.99991 2.69 8.99991 6V40C8.99991 43.02 11.2399 45.53 14.1499 45.93C14.0499 45.63 13.9999 45.32 13.9999 45V18C13.9999 13.59 17.5899 10 21.9999 10Z" fill="#F9952B"/>
<path d="M6 52.0001C3.78998 52.0001 2 50.2101 2 48.0001V14.0001C2 11.7901 3.78998 10.0001 6 10.0001H7V8.00014C3.3457 7.61171 -0.00995016 10.2241 5.98431e-05 14.0002L0 48.0001C0 51.3101 2.69 54.0001 6 54.0001H21.75L19.75 52.0001H6Z" fill="#F9952B"/>
<path d="M36.9999 20C33.1405 20 29.9999 23.1406 29.9999 27C30.3524 36.2736 43.6488 36.271 43.9999 26.9999C43.9999 23.1406 40.8593 20 36.9999 20ZM31.9999 27C31.8843 23.1116 36.6091 20.6104 39.7528 22.833L32.8329 29.7529C32.3089 28.9624 31.9999 28.0173 31.9999 27ZM36.9999 32C35.9826 32 35.0375 31.691 34.247 31.167L41.1669 24.2471C43.3899 27.3914 40.8877 32.1155 36.9999 32Z" fill="#F9952B"/>
<path d="M52.0001 37H29.0001C27.693 37.0195 27.6796 38.9777 29.0002 39H52.0001C53.3072 38.9805 53.3206 37.0223 52.0001 37Z" fill="#F9952B"/>
<path d="M52.0001 42H37.0001C36.4474 42 36.0001 42.4473 36.0001 43C36.0001 43.5527 36.4474 44 37.0001 44H52.0001C53.31 43.9797 53.3183 42.022 52.0001 42Z" fill="#F9952B"/>
<path d="M37.0001 47C35.6892 47.0206 35.6827 48.978 37.0002 49H52.0001C53.31 48.9797 53.3184 47.022 52.0001 47H37.0001Z" fill="#F9952B"/>
<path d="M56 52C56 54.21 54.21 56 52 56H30V50C30 46.69 27.31 44 24 44H18V18C18 15.79 19.7899 14 22 14H39.1099L40.4 12H22C18.69 12 16 14.69 16 18V45C16 45.26 16.0999 45.52 16.2899 45.71L28.2899 57.71C28.4799 57.9 28.74 58 29 58H52C55.31 58 58 55.31 58 52V21.84C57.3792 22.0837 56.6928 22.2087 56 22.19L56 52Z" fill="#F9952B"/>
<path d="M52.1123 5.37116C51.0192 3.5658 48.1675 3.56305 47.0742 5.37122C47.0742 5.37116 40.4843 15.5587 40.4843 15.5587C39.1718 17.4515 40.6987 20.2623 43.003 20.1875C43.0029 20.1876 56.1836 20.1876 56.1836 20.1876C58.4854 20.2601 60.0166 17.453 58.702 15.5586C58.7021 15.5587 52.1123 5.37116 52.1123 5.37116ZM49.5986 17.5001C47.6276 17.4687 47.6148 14.5366 49.5879 14.5001C51.5715 14.5295 51.573 17.4643 49.5986 17.5001ZM51.0927 12.0001C51.0588 13.9712 48.1265 13.9717 48.0927 12V9.00007C48.1264 7.02937 51.059 7.02802 51.0927 9.00013C51.0927 9.00007 51.0927 12.0001 51.0927 12.0001Z" fill="#F9952B"/>
</svg>
