<svg width="34" height="50" viewBox="0 0 34 50" fill="none" xmlns="http://www.w3.org/2000/svg">
<path d="M22.0193 5.37322C22.0193 8.33575 19.6086 10.7464 16.646 10.7464C13.6835 10.7464 11.2728 8.33575 11.2728 5.37322C11.2728 2.41069 13.6835 0 16.646 0C19.6086 0 22.0193 2.41069 22.0193 5.37322ZM32.5188 23.4824L25.2287 14.6529C23.8491 12.9829 21.8014 12.0099 19.6231 12.0099H13.6399C11.4761 12.0099 9.41397 12.9829 8.03436 14.6529L0.744213 23.4824C-0.432087 24.9056 -0.185212 27.0259 1.28153 28.1441C2.70471 29.2332 4.73782 28.9573 5.84151 27.5487L7.70036 25.138L5.82699 34.955C5.56559 36.291 6.59666 37.5399 7.96175 37.5399H9.23971V46.9649C9.23971 48.6494 10.6048 50 12.2749 50C13.9449 50 15.31 48.6349 15.31 46.9649V37.5254H17.924V46.9649C17.924 48.6494 19.2891 50 20.9591 50C22.6292 50 23.9943 48.6349 23.9943 46.9649V37.5254H25.2722C26.6373 37.5254 27.6684 36.2765 27.407 34.9405L25.5336 25.1234L27.3925 27.5341C28.4817 28.9573 30.5293 29.2187 31.9525 28.1295C33.4628 27.0259 33.6951 24.9056 32.5188 23.4824Z" fill="#F65155"/>
</svg>
