<svg width="34" height="50" viewBox="0 0 34 50" fill="none" xmlns="http://www.w3.org/2000/svg">
<path d="M26.2622 14.8911C24.8979 13.0769 22.7499 12.0174 20.4712 12.0174H12.9241C10.6454 12.0174 8.51187 13.0769 7.13306 14.8911L0.674429 23.4398C-0.428619 24.9057 -0.152857 26.9811 1.31304 28.0987C2.76441 29.2017 4.8544 28.9405 5.95745 27.4891L9.31013 23.1495V46.9666C9.31013 48.6502 10.6744 50 12.3435 50C14.0271 50 15.3769 48.6357 15.3769 46.9666V34.6154H17.9749V46.9666C17.9749 48.6502 19.3392 50 21.0082 50C22.6773 50 24.0416 48.6357 24.0416 46.9666V23.135L27.3943 27.4746C28.5119 28.926 30.5873 29.2017 32.0532 28.0842C33.5046 26.9666 33.7949 24.8911 32.6918 23.4253L26.2622 14.8911ZM16.6976 0C13.7368 0 11.3275 2.40929 11.3275 5.3701C11.3275 8.33091 13.7368 10.7402 16.6976 10.7402C19.6585 10.7402 22.0678 8.33091 22.0678 5.3701C22.0678 2.40929 19.673 0 16.6976 0Z" fill="#5277F7"/>
</svg>
