<svg width="25" height="20" viewBox="0 0 25 20" fill="none" xmlns="http://www.w3.org/2000/svg">
<path d="M21.7363 6.81632L23.7681 6.27194C24.1385 6.1727 24.3582 5.792 24.259 5.4216C24.1598 5.05123 23.779 4.83145 23.4087 4.93066L21.3769 5.47504C21.0065 5.57425 20.7867 5.95498 20.8859 6.32538C20.9851 6.69569 21.3658 6.91559 21.7363 6.81632Z" fill="white"/>
<path d="M22.893 11.2679L21.6048 10.5242C21.2728 10.3324 20.8481 10.4462 20.6564 10.7783C20.4647 11.1104 20.5785 11.535 20.9105 11.7267L22.1987 12.4704C22.5307 12.6622 22.9554 12.5484 23.1471 12.2163C23.3388 11.8842 23.225 11.4596 22.893 11.2679Z" fill="white"/>
<path d="M18.4607 2.58378C18.7928 2.7755 19.2174 2.66172 19.4091 2.32965L20.1528 1.04157C20.3445 0.709499 20.2307 0.284851 19.8987 0.0931301C19.5666 -0.0985909 19.1419 0.0151932 18.9502 0.347264L18.2066 1.63534C18.0148 1.96741 18.1286 2.39206 18.4607 2.58378Z" fill="white"/>
<path d="M0.514761 8.88736C0.144703 8.98649 -0.0754535 9.36735 0.0238173 9.7377L1.11264 13.8013C1.21184 14.1716 1.59252 14.3915 1.96298 14.2922L3.55229 13.8664L2.10409 8.46161L0.514761 8.88736Z" fill="white"/>
<path d="M10.6448 15.3833L5.27558 14.9325L6.49547 19.4852C6.59466 19.8555 6.97539 20.0754 7.34581 19.9762L10.9014 19.0234C11.2718 18.9242 11.4916 18.5435 11.3923 18.1731L10.6448 15.3833Z" fill="white"/>
<path d="M15.8864 0.587677C15.8279 0.369283 15.6667 0.193083 15.4543 0.115349C15.242 0.0376541 15.0052 0.0682106 14.8195 0.197251L3.44538 8.10211L4.89356 13.5069L18.6963 14.6657C18.9216 14.6846 19.142 14.5926 19.2871 14.4192C19.4321 14.2457 19.4836 14.0125 19.4251 13.7941L15.8864 0.587677Z" fill="white"/>
</svg>
