<svg width="20" height="20" viewBox="0 0 20 20" fill="none" xmlns="http://www.w3.org/2000/svg">
<path fill-rule="evenodd" clip-rule="evenodd" d="M10.0001 0C4.48602 0 0 4.48606 0 10.0001C0 15.5141 4.48606 20 10.0001 20C15.5141 20 20.0002 15.5141 20.0002 10.0001C20.0002 4.48606 15.5141 0 10.0001 0Z" fill="#F44336"/>
<path fill-rule="evenodd" clip-rule="evenodd" d="M14.4026 8.02516C14.2198 7.84239 13.9228 7.84239 13.7396 8.02516C13.5568 8.20832 13.5568 8.50516 13.7396 8.68793L14.5829 9.53129H9.31932C9.06025 9.53129 8.85053 9.74117 8.85053 10C8.85053 10.2591 9.06021 10.4688 9.31932 10.4688H14.5829L13.7396 11.3122C13.5568 11.495 13.5568 11.7918 13.7396 11.975C13.8315 12.0666 13.9513 12.1123 14.0713 12.1123C14.1912 12.1123 14.3112 12.0666 14.4026 11.975L16.0458 10.3318C16.1339 10.2435 16.1835 10.1243 16.1835 10.0001C16.1835 9.8759 16.1339 9.75629 16.0458 9.6684L14.4026 8.02516ZM13.2275 13.2061C13.412 13.3879 13.4135 13.6848 13.2314 13.8688C12.1897 14.9223 10.8006 15.5023 9.31932 15.5023C6.28545 15.5023 3.81689 13.0341 3.81689 10C3.81689 6.96598 6.28545 4.49762 9.31932 4.49762C10.8006 4.49762 12.1897 5.07785 13.2314 6.13129C13.4134 6.3152 13.412 6.61219 13.2275 6.79426C13.0435 6.97633 12.7468 6.97465 12.5647 6.79039C11.7006 5.91645 10.5478 5.43516 9.31936 5.43516C6.80213 5.43516 4.75443 7.48285 4.75443 10.0001C4.75443 12.5173 6.80213 14.565 9.31936 14.565C10.5478 14.565 11.7006 14.0837 12.5647 13.2099C12.7468 13.0255 13.0435 13.024 13.2275 13.2061Z" fill="white"/>
</svg>
