<svg width="24" height="24" viewBox="0 0 24 24" fill="none" xmlns="http://www.w3.org/2000/svg">
<path d="M6.33606 4.15843C7.12497 4.15843 7.76453 3.5062 7.76453 2.70168C7.76453 2.16552 7.13017 0.961416 6.70689 0.217724C6.5417 -0.0725748 6.13047 -0.0725748 5.96523 0.217724C5.542 0.961416 4.90759 2.16552 4.90759 2.70168C4.90759 3.5062 5.54716 4.15843 6.33606 4.15843Z" fill="#22C68C"/>
<path d="M11.9999 4.15843C12.7888 4.15843 13.4283 3.5062 13.4283 2.70168C13.4283 2.16552 12.794 0.961416 12.3707 0.217724C12.2055 -0.0725748 11.7943 -0.0725748 11.6291 0.217724C11.2058 0.961416 10.5714 2.16552 10.5714 2.70168C10.5714 3.5062 11.2109 4.15843 11.9999 4.15843Z" fill="#22C68C"/>
<path d="M17.6641 4.15843C18.453 4.15843 19.0925 3.5062 19.0925 2.70168C19.0925 2.16552 18.4582 0.961416 18.0349 0.217724C17.8697 -0.0725748 17.4585 -0.0725748 17.2932 0.217724C16.87 0.961416 16.2356 2.16552 16.2356 2.70168C16.2356 3.5062 16.8752 4.15843 17.6641 4.15843Z" fill="#22C68C"/>
<path d="M5.54942 5.35535C5.20001 5.35535 4.91675 5.64421 4.91675 6.00055V11.2056H7.75503V6.0006C7.75503 5.64426 7.47181 5.35539 7.12236 5.35539H5.54942V5.35535Z" fill="#22C68C"/>
<path d="M11.2136 5.35535C10.8642 5.35535 10.5809 5.64421 10.5809 6.00055V11.2056H13.4192V6.0006C13.4192 5.64426 13.1359 5.35539 12.7865 5.35539H11.2136V5.35535Z" fill="#22C68C"/>
<path d="M16.8771 5.35535C16.5277 5.35535 16.2444 5.64421 16.2444 6.00055V11.2056H19.0827V6.0006C19.0827 5.64426 18.7994 5.35539 18.45 5.35539H16.8771V5.35535Z" fill="#22C68C"/>
<path d="M3.10533 16.7831C3.21979 16.7831 3.33693 16.7667 3.45337 16.7315L5.22834 16.1959C5.80851 16.0208 6.41353 15.9333 7.0185 15.9333C7.62347 15.9333 8.22848 16.0208 8.80865 16.1959L10.2097 16.6187C10.7898 16.7938 11.3948 16.8813 11.9998 16.8813C12.6048 16.8813 13.2098 16.7938 13.79 16.6187L15.191 16.1959C15.7711 16.0208 16.3762 15.9333 16.9811 15.9333C17.5861 15.9333 18.1911 16.0208 18.7713 16.1959L20.5462 16.7315C20.6626 16.7666 20.7799 16.7831 20.8943 16.7831C21.4623 16.7831 21.9624 16.3779 21.9624 15.8396V13.9916C21.9624 13.379 21.399 12.8823 20.7039 12.8823H3.29573C2.60067 12.8823 2.03723 13.379 2.03723 13.9916V15.8396C2.03723 16.3779 2.53739 16.7831 3.10533 16.7831Z" fill="#22C68C"/>
<path d="M23.2969 22.5665H21.3775V18.1707C21.2195 18.2009 21.0579 18.2168 20.8945 18.2168C20.6417 18.2168 20.3903 18.1796 20.1473 18.1062L18.3723 17.5706C17.9245 17.4355 17.4565 17.3669 16.9813 17.3669C16.5061 17.3669 16.0381 17.4355 15.5903 17.5706L14.1893 17.9934C13.4822 18.2068 12.7456 18.315 12 18.315C11.2545 18.315 10.5179 18.2068 9.8107 17.9934L8.4097 17.5706C7.96191 17.4355 7.49391 17.3669 7.01873 17.3669C6.54356 17.3669 6.07556 17.4355 5.62777 17.5706L3.8528 18.1062C3.6097 18.1796 3.35831 18.2168 3.10556 18.2168C2.94211 18.2168 2.78048 18.2009 2.62252 18.1707V22.5665H0.703125C0.314812 22.5665 0 22.8875 0 23.2833C0 23.6792 0.314812 24.0001 0.703125 24.0001H23.2969C23.6852 24.0001 24 23.6792 24 23.2833C24 22.8875 23.6852 22.5665 23.2969 22.5665Z" fill="#22C68C"/>
</svg>
