<svg width="60" height="58" viewBox="0 0 60 58" fill="none" xmlns="http://www.w3.org/2000/svg">
<path d="M21.9999 10H41.6999L45.3899 4.28998C46.2999 2.88001 47.8199 2.03998 49.4698 2.01001C48.3799 0.77997 46.7799 0 44.9999 0H14.9999C11.6899 0 8.99988 2.69 8.99988 6V40C8.99988 43.02 11.2399 45.53 14.1499 45.93C14.0499 45.63 13.9999 45.32 13.9999 45V18C13.9999 13.59 17.5899 10 21.9999 10Z" fill="#F9952B"/>
<path d="M6 52C3.78998 52 2 50.21 2 48V14C2 11.79 3.78998 10 6 10H7V8.00001C3.3457 7.61158 -0.00995016 10.224 5.98431e-05 14.0001L0 48C0 51.31 2.69 54 6 54H21.75L19.75 52H6Z" fill="#F9952B"/>
<path d="M36.9999 20C33.1405 20 29.9999 23.1406 29.9999 27C30.3524 36.2736 43.6488 36.271 43.9999 26.9999C43.9999 23.1406 40.8593 20 36.9999 20ZM31.9999 27C31.8843 23.1116 36.6091 20.6104 39.7528 22.833L32.8329 29.7529C32.3089 28.9624 31.9999 28.0173 31.9999 27ZM36.9999 32C35.9825 32 35.0375 31.691 34.2469 31.167L41.1669 24.2471C43.3898 27.3914 40.8877 32.1155 36.9999 32Z" fill="#F9952B"/>
<path d="M52.0001 37H29.0001C27.693 37.0195 27.6796 38.9777 29.0002 39H52.0001C53.3073 38.9805 53.3206 37.0223 52.0001 37Z" fill="#F9952B"/>
<path d="M52.0001 42H37.0001C36.4474 42 36.0001 42.4473 36.0001 43C36.0001 43.5527 36.4474 44 37.0001 44H52.0001C53.31 43.9797 53.3184 42.022 52.0001 42Z" fill="#F9952B"/>
<path d="M37.0002 47C35.6892 47.0206 35.6828 48.978 37.0002 49H52.0002C53.31 48.9797 53.3184 47.022 52.0002 47H37.0002Z" fill="#F9952B"/>
<path d="M56 52C56 54.21 54.21 56 52 56H30V50C30 46.69 27.31 44 24 44H18V18C18 15.79 19.79 14 22 14H39.11L40.4 12H22C18.69 12 16 14.69 16 18V45C16 45.26 16.1 45.52 16.29 45.71L28.29 57.71C28.48 57.9 28.74 58 29 58H52C55.31 58 58 55.31 58 52V21.84C57.3792 22.0837 56.6928 22.2087 56 22.19L56 52Z" fill="#F9952B"/>
<path d="M52.1123 5.3711C51.0193 3.56574 48.1675 3.56299 47.0742 5.37116C47.0742 5.3711 40.4844 15.5586 40.4844 15.5586C39.1719 17.4514 40.6987 20.2622 43.003 20.1874C43.0029 20.1875 56.1836 20.1875 56.1836 20.1875C58.4854 20.26 60.0167 17.4529 58.702 15.5585C58.7021 15.5586 52.1123 5.3711 52.1123 5.3711ZM49.5986 17.5C47.6277 17.4686 47.6148 14.5366 49.5879 14.5C51.5715 14.5295 51.5731 17.4642 49.5986 17.5ZM51.0928 12C51.0588 13.9711 48.1266 13.9717 48.0928 11.9999V9.00001C48.1264 7.02931 51.059 7.02796 51.0928 9.00007C51.0928 9.00001 51.0928 12 51.0928 12Z" fill="#F9952B"/>
</svg>
