<svg width="24" height="26" viewBox="0 0 24 26" fill="none" xmlns="http://www.w3.org/2000/svg">
<path d="M4.99609 10.9666L2.64502 17.6195V17.62C3.22034 20.0584 4.4849 22.2139 6.27501 23.8398L9.22486 22.6663C6.09165 19.6892 4.54517 15.3101 4.99609 10.9666Z" fill="#F65155"/>
<path d="M1.84913 19.8715L0.0470538 24.9691C-0.168333 25.578 0.393109 26.1802 0.971304 25.9497L4.77313 24.4375C3.49794 23.1245 2.50874 21.5597 1.84913 19.8715Z" fill="#F65155"/>
<path d="M10.0364 10.3461L7.35653 7.50299C5.18371 12.7028 6.66916 18.6461 10.7687 22.0524L13.6291 20.9145C11.117 18.1623 9.75829 14.3208 10.0364 10.3461Z" fill="#F65155"/>
<path d="M11.4382 11.8334C11.5483 15.0654 12.8751 18.1197 15.1199 20.3209H15.1204L17.2168 19.4872C17.7065 19.2922 17.8405 18.6255 17.4724 18.235L11.4382 11.8334Z" fill="#F65155"/>
<path d="M16.682 14.2263C16.9624 14.5237 17.4169 14.5237 17.6973 14.2263C20.3984 11.3608 23.0284 12.2467 23.0547 12.2559C23.4309 12.3889 23.8375 12.1733 23.9629 11.7742C24.0883 11.3752 23.885 10.9438 23.5088 10.8107C23.3672 10.7607 20.0036 9.62521 16.682 13.1491C16.4016 13.4465 16.4015 13.9289 16.682 14.2263Z" fill="#F65155"/>
<path d="M12.1131 8.30171C15.4349 4.77822 14.3642 1.20953 14.3173 1.05923C14.1919 0.660113 13.785 0.444814 13.4088 0.577852C13.0331 0.710891 12.8297 1.142 12.9551 1.54111C12.9637 1.56904 13.7989 4.3593 11.0975 7.22471C10.8189 7.52029 10.816 8.00222 11.0975 8.30171C11.3793 8.6007 11.8335 8.59836 12.1131 8.30171Z" fill="#F65155"/>
<path d="M13.6361 9.91766C13.3557 10.2151 13.3557 10.6974 13.6361 10.9948C13.9139 11.2896 14.3653 11.2934 14.6471 10.9993C15.018 10.8033 16.1693 11.5386 16.8091 10.8601C17.442 10.1887 16.7695 8.99217 16.9375 8.57285C17.3333 8.39421 18.4606 9.10795 19.0936 8.43656C19.7266 7.76507 19.0541 6.56858 19.2221 6.14921C19.6184 5.97052 20.7452 6.68436 21.3781 6.01292C22.0111 5.34143 21.3386 4.14494 21.5066 3.72557C21.9006 3.54779 23.0302 4.26001 23.6627 3.58923C24.3022 2.91068 23.6104 1.68718 23.7938 1.29573C24.07 0.997968 24.0685 0.51908 23.7896 0.223094C23.5092 -0.0743646 23.0546 -0.0743646 22.7742 0.223094C22.2083 0.823444 22.319 1.67098 22.4256 2.27692C21.8545 2.16383 21.0556 2.04638 20.4897 2.64668C19.9238 3.24703 20.0346 4.09457 20.1411 4.70051C19.57 4.58747 18.771 4.46992 18.2052 5.07032C17.6393 5.67067 17.7501 6.51821 17.8567 7.12415C17.2854 7.01106 16.4866 6.89356 15.9207 7.49391C15.3548 8.09426 15.4655 8.9418 15.5721 9.54774C15.0009 9.43476 14.2019 9.31731 13.6361 9.91766Z" fill="#F65155"/>
<path d="M17.6973 3.45461C17.9777 3.15715 17.9777 2.67491 17.6973 2.37745C17.4169 2.07999 16.9624 2.07999 16.682 2.37745C16.4016 2.67491 16.4016 3.15715 16.682 3.45461C16.9624 3.75207 17.4169 3.75207 17.6973 3.45461Z" fill="#F65155"/>
<path d="M22.2663 9.06357C22.6628 9.06357 22.9843 8.72255 22.9843 8.30189C22.9843 7.88123 22.6628 7.54022 22.2663 7.54022C21.8698 7.54022 21.5483 7.88123 21.5483 8.30189C21.5483 8.72255 21.8698 9.06357 22.2663 9.06357Z" fill="#F65155"/>
<path d="M20.7432 15.3035C20.4629 15.6009 20.4629 16.0832 20.7432 16.3806C21.0236 16.6781 21.4782 16.6781 21.7586 16.3806C22.039 16.0832 22.039 15.6009 21.7586 15.3035C21.4782 15.006 21.0236 15.006 20.7432 15.3035Z" fill="#F65155"/>
<path d="M10.5901 4.53176C10.8705 4.2343 10.8705 3.75206 10.5901 3.4546C10.3097 3.15714 9.85518 3.15714 9.57479 3.4546C9.29441 3.75201 9.29441 4.2343 9.57479 4.53176C9.85518 4.82922 10.3098 4.82922 10.5901 4.53176Z" fill="#F65155"/>
</svg>
