<svg width="15" height="20" viewBox="0 0 15 20" fill="none" xmlns="http://www.w3.org/2000/svg">
<path fill-rule="evenodd" clip-rule="evenodd" d="M2.60369 0H9.29034L14.9575 5.90705V17.3963C14.9575 18.8356 13.7931 20 12.3588 20H2.60369C1.16441 20 4.11296e-10 18.8356 4.11296e-10 17.3963V2.60369C-2.52695e-05 1.16441 1.16439 0 2.60369 0Z" fill="#E5252A"/>
<path opacity="0.302" fill-rule="evenodd" clip-rule="evenodd" d="M9.28516 0V5.86207H14.9573L9.28516 0Z" fill="white"/>
<path d="M2.89355 14.9225V11.2694H4.44778C4.83259 11.2694 5.13745 11.3743 5.36733 11.5892C5.59721 11.7991 5.71216 12.084 5.71216 12.4388C5.71216 12.7936 5.59721 13.0785 5.36733 13.2884C5.13745 13.5033 4.83259 13.6082 4.44778 13.6082H3.82809V14.9225H2.89355ZM3.82809 12.8136H4.34284C4.48276 12.8136 4.59271 12.7836 4.66768 12.7137C4.74263 12.6487 4.78263 12.5587 4.78263 12.4388C4.78263 12.3189 4.74266 12.2289 4.66768 12.1639C4.59273 12.094 4.48278 12.064 4.34284 12.064H3.82809V12.8136ZM6.09695 14.9225V11.2694H7.3913C7.64617 11.2694 7.88606 11.3043 8.11094 11.3793C8.33582 11.4543 8.54073 11.5592 8.72063 11.7042C8.90055 11.8441 9.04547 12.034 9.15042 12.2739C9.25036 12.5138 9.30535 12.7886 9.30535 13.0985C9.30535 13.4033 9.25039 13.6782 9.15042 13.918C9.04547 14.1579 8.90055 14.3478 8.72063 14.4877C8.54071 14.6327 8.33582 14.7376 8.11094 14.8126C7.88606 14.8875 7.64617 14.9225 7.3913 14.9225H6.09695ZM7.01149 14.1279H7.28135C7.42628 14.1279 7.56122 14.113 7.68615 14.078C7.80608 14.043 7.92104 13.988 8.03098 13.9131C8.13593 13.8381 8.22089 13.7331 8.28085 13.5932C8.34082 13.4533 8.37082 13.2884 8.37082 13.0985C8.37082 12.9035 8.34082 12.7386 8.28085 12.5987C8.22089 12.4588 8.13593 12.3538 8.03098 12.2789C7.92104 12.2039 7.80611 12.1489 7.68615 12.114C7.56122 12.079 7.42628 12.064 7.28135 12.064H7.01149V14.1279ZM9.77512 14.9225V11.2694H12.3738V12.064H10.7096V12.6487H12.039V13.4383H10.7096V14.9225H9.77512Z" fill="white"/>
</svg>
