<svg width="20" height="20" viewBox="0 0 20 20" fill="none" xmlns="http://www.w3.org/2000/svg">
<path d="M9.99999 20C15.5228 20 20 15.5228 20 9.99999C20 4.47715 15.5228 0 9.99999 0C4.47715 0 0 4.47715 0 9.99999C0 15.5228 4.47715 20 9.99999 20Z" fill="#E6ECFF"/>
<path d="M18.0247 15.9596C17.092 14.711 15.881 13.6971 14.4879 12.9985C13.0947 12.3 11.5578 11.936 9.99932 11.9355C8.44083 11.935 6.90371 12.298 5.51011 12.9957C4.11651 13.6934 2.90486 14.7065 1.97144 15.9546C2.90011 17.2089 4.10979 18.2283 5.50347 18.9308C6.89715 19.6333 8.43606 19.9995 9.99679 20C11.5575 20.0005 13.0967 19.6353 14.4908 18.9336C15.8849 18.232 17.0952 17.2134 18.0247 15.9596Z" fill="#4294FF"/>
<path d="M9.99987 10.6452C12.1377 10.6452 13.8708 8.91207 13.8708 6.77419C13.8708 4.63632 12.1377 2.90323 9.99987 2.90323C7.862 2.90323 6.12891 4.63632 6.12891 6.77419C6.12891 8.91207 7.862 10.6452 9.99987 10.6452Z" fill="#4294FF"/>
</svg>
