<svg width="15" height="20" viewBox="0 0 15 20" fill="none" xmlns="http://www.w3.org/2000/svg">
<path d="M14.4853 5.47794V18.7116C14.4853 19.4233 13.908 20 13.1969 20H1.2884C0.57672 20 1.98423e-09 19.4233 1.98423e-09 18.7116V1.2884C-3.90606e-05 0.57672 0.576681 0 1.2884 0H9.00736L14.4853 5.47794Z" fill="#28B446"/>
<path d="M9.75488 5.35891L14.4854 7.30778V5.47794L11.8034 4.68602L9.75488 5.35891Z" fill="#219B38"/>
<path d="M14.4853 5.47794H10.2957C9.58401 5.47794 9.00732 4.90122 9.00732 4.18954V0L14.4853 5.47794Z" fill="#6ACE7C"/>
<path d="M10.4111 9.95885H4.07367C3.84633 9.95885 3.66211 10.1431 3.66211 10.3704V15.8848C3.66211 16.1121 3.84633 16.2964 4.07367 16.2964H10.4111C10.6385 16.2964 10.8227 16.1121 10.8227 15.8848V10.3704C10.8227 10.1431 10.6385 9.95885 10.4111 9.95885ZM4.48524 12.6048H6.83087V13.6506H4.48524V12.6048ZM7.65395 12.6048H9.99958V13.6506H7.65395V12.6048ZM9.99962 11.7817H7.65399V10.782H9.99962V11.7817ZM6.83087 10.782V11.7817H4.48524V10.782H6.83087ZM4.48524 14.4737H6.83087V15.4734H4.48524V14.4737ZM7.65395 15.4734V14.4737H9.99958V15.4734H7.65395Z" fill="white"/>
</svg>
