<svg width="7" height="13" viewBox="0 0 7 13" fill="none" xmlns="http://www.w3.org/2000/svg">
<path d="M6.61943 12.1047C6.52314 12.2641 6.37041 12.3438 6.16123 12.3438C6.06494 12.3438 5.94541 12.3238 5.8956 12.2973C5.78603 12.2375 0.400488 6.84531 0.347363 6.74238C0.300879 6.64941 0.300879 6.35059 0.347363 6.25762C0.400488 6.15469 5.78603 0.7625 5.8956 0.702734C5.94541 0.676171 6.06494 0.65625 6.16123 0.65625C6.4833 0.65625 6.68584 0.858788 6.68584 1.18086C6.68584 1.27715 6.66924 1.39004 6.64931 1.42988C6.62939 1.46973 5.49053 2.62852 4.11592 3.9998L1.62236 6.5L4.11592 8.99687C5.49053 10.3715 6.62939 11.5303 6.64931 11.5701C6.70908 11.6896 6.69248 11.9818 6.61943 12.1047Z" fill="#21225F"/>
</svg>
