<svg width="7" height="13" viewBox="0 0 7 13" fill="none" xmlns="http://www.w3.org/2000/svg">
<path d="M0.380568 12.1047C0.476857 12.2641 0.629591 12.3438 0.838771 12.3438C0.93506 12.3438 1.05459 12.3238 1.1044 12.2973C1.21397 12.2375 6.59951 6.84531 6.65264 6.74238C6.69912 6.64941 6.69912 6.35059 6.65264 6.25762C6.59951 6.15469 1.21397 0.7625 1.1044 0.702734C1.05459 0.676171 0.93506 0.65625 0.838771 0.65625C0.516701 0.65625 0.314162 0.858788 0.314162 1.18086C0.314162 1.27715 0.330763 1.39004 0.350685 1.42988C0.370607 1.46973 1.50947 2.62852 2.88408 3.9998L5.37764 6.5L2.88408 8.99687C1.50947 10.3715 0.370607 11.5303 0.350685 11.5701C0.29092 11.6896 0.307521 11.9818 0.380568 12.1047Z" fill="#21225F"/>
</svg>
