<svg width="50" height="50" viewBox="0 0 50 50" fill="none" xmlns="http://www.w3.org/2000/svg">
<path d="M11.9272 29.9334V15.3091C11.9272 14.1634 12.2294 13.0878 12.7561 12.1549C11.5589 12.1549 4.36571 12.1549 3.16259 12.1549V12.1554C1.41396 12.1675 0 13.5884 0 15.3399V29.9641C0 30.9522 0.800975 31.7532 1.78906 31.7532H4.11581L4.76483 45.0942C4.89765 47.8241 7.1496 49.9692 9.8827 49.9692C12.5576 49.9692 14.7618 47.8697 14.8917 45.198L15.4011 34.7244C13.3472 34.0507 11.9272 32.1219 11.9272 29.9334Z" fill="white"/>
<path d="M40.1907 10.271C43.01 10.271 45.2956 7.98545 45.2956 5.16611C45.2956 2.34676 43.01 0.0612335 40.1907 0.0612335C37.3713 0.0612335 35.0858 2.34676 35.0858 5.16611C35.0858 7.98545 37.3713 10.271 40.1907 10.271Z" fill="white"/>
<path d="M46.8593 12.1899L46.8594 12.1856C46.0694 12.1856 38.8661 12.1856 37.1389 12.1856C37.6549 13.1114 37.9501 14.1762 37.9501 15.3093V29.9335C37.9501 32.0903 36.5761 33.969 34.6167 34.6769L35.125 45.125C35.2578 47.8549 37.5098 50 40.2429 50C42.9178 50 45.122 47.9005 45.2518 45.2287L45.9058 31.784H48.0881C49.0761 31.784 49.8771 30.983 49.8771 29.995V15.3706C49.8774 13.6674 48.5407 12.2767 46.8593 12.1899Z" fill="white"/>
<path d="M31.6793 12.1285L31.6795 12.1242H26.6313L27.6202 13.1131C27.8525 13.3454 27.8525 13.7223 27.6202 13.9546L26.5774 14.9973L27.3893 24.0797C27.4174 24.3938 27.3328 24.7077 27.1505 24.9651L25.4245 27.4039C25.3129 27.5615 25.1318 27.6552 24.9389 27.6552C24.7459 27.6552 24.5647 27.5616 24.4532 27.4039L22.7273 24.9651C22.5451 24.7077 22.4605 24.3938 22.4885 24.0797L23.3003 14.9973L22.2575 13.9546C22.0252 13.7223 22.0252 13.3454 22.2575 13.1131L23.2464 12.1242H18.3428V12.1248C16.5942 12.1369 15.1803 13.5577 15.1803 15.3093V29.9335C15.1803 30.9215 15.9813 31.7225 16.9694 31.7225H19.2961L19.4543 34.9753L19.945 45.0636C20.0778 47.7935 22.3298 49.9386 25.0629 49.9386C27.7378 49.9386 29.942 47.8391 30.0719 45.1673L30.5677 34.9753L30.7259 31.7225H32.9081C33.8962 31.7225 34.6972 30.9215 34.6972 29.9335V15.3092H34.6973C34.6973 13.6061 33.3606 12.2154 31.6793 12.1285Z" fill="white"/>
<path d="M25.011 0C22.1918 0 19.9064 2.28544 19.9064 5.10468C19.9064 7.92332 22.1925 10.2096 25.011 10.2096C27.83 10.2096 30.1157 7.92303 30.1157 5.10487C30.1157 2.28544 27.8303 0 25.011 0Z" fill="white"/>
<path d="M9.83058 10.24C12.6499 10.24 14.9355 7.95449 14.9355 5.13515C14.9355 2.3158 12.6499 0.0302734 9.83058 0.0302734C7.01124 0.0302734 4.72571 2.3158 4.72571 5.13515C4.72571 7.95449 7.01124 10.24 9.83058 10.24Z" fill="white"/>
</svg>
